<svg width="54" height="51" viewBox="0 0 54 51" fill="none" xmlns="http://www.w3.org/2000/svg">
<rect width="53.1693" height="50.954" rx="25.477" fill="#0141E9"/>
<path d="M37.3368 26.2605L29.5829 34.0143C29.3669 34.2303 29.0834 34.3388 28.7998 34.3388C28.5163 34.3388 28.2327 34.2303 28.0167 34.0143C27.5836 33.5812 27.5836 32.8811 28.0167 32.4479L33.8797 26.585H16.6153C16.0027 26.585 15.5076 26.0898 15.5076 25.4773C15.5076 24.8647 16.0027 24.3696 16.6153 24.3696H33.8797L28.0167 18.5066C27.5836 18.0735 27.5836 17.3734 28.0167 16.9403C28.4498 16.5072 29.1498 16.5072 29.5829 16.9403L37.3368 24.6941C37.7699 25.1272 37.7699 25.8274 37.3368 26.2605Z" fill="white"/>
</svg>
