<svg width="52" height="50" viewBox="0 0 52 50" fill="none" xmlns="http://www.w3.org/2000/svg">
<rect x="0.000244141" y="0.300171" width="51.9998" height="49.3999" rx="24.6999" fill="url(#paint0_linear_172_220)"/>
<path d="M38.6188 25.9194L29.5189 35.0193C29.2654 35.2728 28.9326 35.4002 28.5998 35.4002C28.267 35.4002 27.9343 35.2728 27.6808 35.0193C27.1725 34.511 27.1725 33.6894 27.6808 33.1811L34.5616 26.3003H14.3C13.5811 26.3003 13 25.7192 13 25.0003C13 24.2814 13.5811 23.7003 14.3 23.7003H34.5616L27.6808 16.8195C27.1725 16.3112 27.1725 15.4896 27.6808 14.9813C28.1891 14.473 29.0106 14.473 29.5189 14.9813L38.6188 24.0812C39.1271 24.5895 39.1271 25.4111 38.6188 25.9194Z" fill="white"/>
<defs>
<linearGradient id="paint0_linear_172_220" x1="-6.49969" y1="0.300171" x2="51.9997" y2="49.6997" gradientUnits="userSpaceOnUse">
<stop stop-color="#0141E9"/>
<stop offset="1" stop-color="#81A3FF"/>
</linearGradient>
</defs>
</svg>
