<svg width="53" height="16" viewBox="0 0 53 16" fill="none" xmlns="http://www.w3.org/2000/svg">
<path d="M1.08255 13.2299C0.575858 13.7366 0.575858 14.5581 1.08255 15.0648C1.58924 15.5715 2.41076 15.5715 2.91745 15.0648L1.08255 13.2299ZM48.7823 15.4264C49.4887 15.5466 50.1588 15.0715 50.2791 14.3651L52.2385 2.85341C52.3587 2.14699 51.8836 1.47686 51.1771 1.35662C50.4707 1.23638 49.8006 1.71157 49.6804 2.41798L47.9386 12.6506L37.7061 10.9088C36.9997 10.7886 36.3295 11.2638 36.2093 11.9702C36.089 12.6766 36.5642 13.3467 37.2706 13.467L48.7823 15.4264ZM4.84918 13.259C5.38796 12.7866 5.44173 11.9669 4.9693 11.4281C4.49686 10.8893 3.67711 10.8355 3.13833 11.308L4.84918 13.259ZM7.56781 7.85901C6.97822 8.26625 6.83039 9.07436 7.23764 9.66395C7.64488 10.2536 8.45299 10.4014 9.04258 9.99413L7.56781 7.85901ZM13.5781 7.23744C14.2119 6.90295 14.4544 6.11807 14.1199 5.48436C13.7855 4.85064 13.0006 4.60807 12.3669 4.94256L13.5781 7.23744ZM17.5213 2.64878C16.8476 2.89286 16.4993 3.63689 16.7434 4.31061C16.9875 4.98433 17.7316 5.33261 18.4053 5.08852L17.5213 2.64878ZM23.4612 3.71049C24.1664 3.58342 24.6351 2.90872 24.508 2.20351C24.381 1.49829 23.7063 1.02961 23.0011 1.15668L23.4612 3.71049ZM28.7081 0.713624C27.9919 0.692539 27.3941 1.25609 27.373 1.97235C27.3519 2.68861 27.9155 3.28635 28.6318 3.30744L28.7081 0.713624ZM33.7191 4.05997C34.4101 4.24954 35.124 3.84301 35.3136 3.15197C35.5031 2.46093 35.0966 1.74705 34.4056 1.55749L33.7191 4.05997ZM39.736 3.74285C39.1099 3.39439 38.3198 3.61949 37.9713 4.24563C37.6229 4.87176 37.848 5.66183 38.4741 6.0103L39.736 3.74285ZM42.7004 9.00455C43.2402 9.47587 44.0598 9.42039 44.5311 8.88064C45.0024 8.34089 44.947 7.52126 44.4072 7.04993L42.7004 9.00455ZM48.3459 11.146C47.8922 10.5913 47.0748 10.5094 46.5201 10.963C45.9654 11.4166 45.8835 12.2341 46.3371 12.7888L48.3459 11.146ZM2.91745 15.0648C3.50565 14.4766 4.15142 13.8709 4.84918 13.259L3.13833 11.308C2.39933 11.956 1.71208 12.6004 1.08255 13.2299L2.91745 15.0648ZM9.04258 9.99413C10.4561 9.01777 11.9765 8.08282 13.5781 7.23744L12.3669 4.94256C10.6672 5.8397 9.05902 6.829 7.56781 7.85901L9.04258 9.99413ZM18.4053 5.08852C20.0515 4.49211 21.7438 4.01994 23.4612 3.71049L23.0011 1.15668C21.1239 1.49491 19.2897 2.00811 17.5213 2.64878L18.4053 5.08852ZM28.6318 3.30744C30.3276 3.35736 32.029 3.59634 33.7191 4.05997L34.4056 1.55749C32.5047 1.03604 30.5977 0.769248 28.7081 0.713624L28.6318 3.30744ZM38.4741 6.0103C39.899 6.8033 41.312 7.79216 42.7004 9.00455L44.4072 7.04993C42.8875 5.72287 41.3261 4.62782 39.736 3.74285L38.4741 6.0103ZM46.3371 12.7888C46.878 13.4502 47.4132 14.1526 47.9416 14.8978L50.0584 13.3968C49.4968 12.6049 48.9257 11.8551 48.3459 11.146L46.3371 12.7888Z" fill="white"/>
</svg>
