<svg width="52" height="52" viewBox="0 0 52 52" fill="none" xmlns="http://www.w3.org/2000/svg">
<g clip-path="url(#clip0_91_85)">
<circle cx="26.1828" cy="25.7854" r="25.7854" fill="#C1C1C1"/>
<path d="M23.1167 32.5901C22.9846 30.8725 22.9846 29.155 22.8525 27.3053C22.8525 26.3805 22.4562 25.7199 21.3992 25.7199C20.7386 25.7199 20.078 25.852 19.9459 24.9272C19.8138 23.7381 19.5496 22.4169 19.9459 21.2279C19.9459 21.0958 20.4744 20.8315 20.7386 20.8315C22.7204 21.2279 23.1167 20.1709 23.1167 18.5855C23.1167 14.3577 26.6839 12.1117 31.3081 12.3759C32.6293 12.5081 32.6293 13.565 32.6293 14.4898C32.4971 15.4147 33.0256 16.7359 31.3081 16.7359C29.8548 16.6038 28.7978 17.1322 28.7978 18.8498C28.7978 20.0388 28.9299 20.9636 30.3832 21.0958C32.4971 21.2279 32.1008 22.6812 32.1008 24.1345C32.2329 25.7199 31.4402 26.2484 29.9869 26.2484C28.5336 26.2484 28.2694 27.0411 28.2694 28.3623C28.2694 31.2689 28.2694 34.0433 28.1372 36.9499C28.0051 38.7996 27.6088 38.9317 25.0985 38.7996C23.381 38.7996 23.1167 38.0069 23.2489 36.5536C22.9846 35.3645 22.9846 34.0434 23.1167 32.5901Z" fill="white"/>
</g>
<defs>
<clipPath id="clip0_91_85">
<rect width="51.5708" height="51.5708" fill="white" transform="translate(0.397461)"/>
</clipPath>
</defs>
</svg>
