<svg width="52" height="52" viewBox="0 0 52 52" fill="none" xmlns="http://www.w3.org/2000/svg">
<circle cx="25.7854" cy="25.7854" r="25.7854" fill="#C1C1C1"/>
<path d="M34.243 17.4664C33.5457 18.2985 32.8484 18.7978 32.3255 19.4635C31.4538 20.6286 30.7565 20.7951 29.3619 19.9629C26.0498 18.1321 23.2605 18.9642 20.4713 21.9601C18.3794 24.1237 18.2051 27.4525 19.774 30.1154C22.0403 33.777 29.7106 33.9434 32.1511 30.4483C32.8484 29.4497 32.4998 28.6175 31.1052 28.4511C30.2336 28.2847 29.1876 28.6175 28.1416 28.4511C26.3984 28.2847 25.7011 27.4525 25.8754 25.7881C25.8754 24.1238 27.0957 23.9573 28.4903 23.9573C30.9309 23.9573 33.1971 23.9573 35.6376 24.1238C38.2525 24.2902 38.4268 24.6231 37.9039 27.1196C37.9039 27.4525 37.5552 27.9518 37.5552 28.2847C36.6836 32.612 35.1147 36.2736 30.2336 37.605C25.0038 38.9365 20.297 37.7715 16.4618 34.2763C12.278 30.4483 12.4523 21.9601 16.8105 17.9656C22.0402 12.8061 29.1876 12.6397 34.243 17.4664Z" fill="white"/>
</svg>
