<svg width="53" height="52" viewBox="0 0 53 52" fill="none" xmlns="http://www.w3.org/2000/svg">
<circle cx="26.4841" cy="25.7854" r="25.7854" fill="#C1C1C1"/>
<path d="M26.3018 38.1599C24.0379 38.1599 21.7739 38.2955 19.6432 38.1599C16.5803 37.8888 15.3817 36.8045 14.849 33.5514C14.1832 29.7562 13.9169 26.0965 14.3164 22.3012C14.4495 20.9458 14.5827 19.4548 14.849 18.0994C15.2486 15.2529 16.4471 14.033 19.2437 13.3553C20.4422 13.0842 21.5076 12.9487 22.7061 13.0842C25.2364 13.2198 27.7666 13.2197 30.2969 12.9487C31.4954 12.8131 32.5608 12.9487 33.7593 13.0842C36.0232 13.3553 37.6213 14.5752 37.8876 16.8795C38.6867 22.5723 39.3525 28.2652 38.2871 33.958C37.7545 36.6689 36.5559 37.7533 33.8925 38.2955C31.4954 38.431 28.9652 38.2955 26.3018 38.1599ZM26.8344 19.997C23.7715 19.8614 21.1081 22.1657 20.8417 25.0121C20.5754 28.5363 22.7061 30.8405 26.3018 31.1116C29.0983 31.2472 31.7618 28.8074 32.0281 25.6899C32.2945 22.8434 29.8974 20.1325 26.8344 19.997ZM35.091 17.8283C34.9579 17.015 34.5584 16.4728 33.6262 16.4728C32.5608 16.4728 32.0281 17.1506 32.0281 18.0994C32.0281 19.0482 32.5608 19.7259 33.6262 19.7259C34.6915 19.5903 35.091 18.9126 35.091 17.8283Z" fill="white"/>
</svg>
