<svg width="52" height="52" viewBox="0 0 52 52" fill="none" xmlns="http://www.w3.org/2000/svg">
<g clip-path="url(#clip0_91_100)">
<circle cx="25.8816" cy="25.7854" r="25.7854" fill="#C1C1C1"/>
<path d="M26.8951 34.7233C23.3301 35.1824 20.5077 34.7233 17.6854 34.4172C14.863 34.111 13.9718 33.1927 13.8232 30.1314C13.6747 27.3763 13.5261 24.4682 13.5261 21.7131C13.5261 18.1927 14.7145 16.9682 18.131 16.509C23.7757 15.7437 29.4204 16.2029 35.0651 16.9682C36.6991 17.1212 37.7389 17.8865 38.036 19.5702C38.9272 23.2437 38.9272 27.0702 38.4816 30.8967C38.1845 33.0396 36.5505 34.111 34.4709 34.4172C31.9456 34.8764 29.1233 34.8763 26.8951 34.7233ZM23.3301 30.4376C26.1524 29.6723 28.5291 28.1417 30.7573 25.9988C28.3806 24.1621 26.0039 22.9375 23.033 21.56C23.033 24.7743 22.7359 27.5294 23.3301 30.4376Z" fill="white"/>
</g>
<defs>
<clipPath id="clip0_91_100">
<rect width="51.5708" height="51.5708" fill="white" transform="translate(0.0961914)"/>
</clipPath>
</defs>
</svg>
