<svg width="100" height="42" viewBox="0 0 100 42" fill="none" xmlns="http://www.w3.org/2000/svg">
<path fill-rule="evenodd" clip-rule="evenodd" d="M22.3997 38.6001C24.3162 37.4106 25.927 35.959 27.2897 34.4474C28.2655 36.44 30.2235 37.8001 32.2998 37.8001C33.8998 37.8001 35.4998 37.0001 36.5998 35.5001C36.9998 36.9001 37.9998 37.8001 39.6998 37.8001C40.9755 37.8001 43.7567 36.4982 46.2784 34.569L45.9997 36.0001C45.8997 36.4001 45.8997 36.7001 45.8997 36.9001C45.9997 37.5001 46.3997 37.8001 46.9997 37.8001C48.1997 37.8001 49.8997 36.7001 50.2997 34.9001L50.8997 32.4001C51.5997 29.2001 56.2997 24.4001 57.5997 24.4001C57.6997 24.4001 57.8997 24.5001 57.8997 24.7001C57.9393 25.0176 57.7112 25.6187 57.3779 26.497C56.8714 27.8318 56.1218 29.8068 55.6997 32.4001C55.4997 33.2001 55.4997 34.0001 55.5997 34.6001C55.7997 36.5001 56.8997 37.8001 58.9997 37.8001C60.7968 37.8001 64.6931 36.2661 67.424 33.198C67.6298 34.8634 67.9821 36.2799 68.4997 37.2001C68.6997 37.6001 69.1997 37.7001 69.6997 37.7001C70.2997 37.7001 71.0997 37.5001 71.9997 37.0001C74.0997 35.9001 76.7997 33.3001 79.3997 29.5001C79.7997 29.6001 80.0997 29.6001 80.3997 29.6001C81.4373 29.6001 82.597 29.2339 83.6737 28.586C83.2262 29.9373 83.0518 31.3174 83.1998 32.6001C83.5998 35.6001 86.0998 37.9001 88.7998 37.9001C90.2998 37.9001 91.8998 37.0001 92.9998 35.6001C93.3998 37.5001 94.5998 39.5001 97.5998 40.7001C97.7998 40.8001 97.9997 40.8001 98.1998 40.8001C98.7998 40.8001 99.1998 40.4001 99.0998 39.9001C99.0998 39.7001 98.9997 39.4001 98.6998 39.2001C97.9997 38.6001 97.1998 37.5001 96.9998 35.8001C96.8998 35.0001 96.8998 34.0001 97.3998 33.0001C97.9998 30.3001 98.0998 29.5001 98.0998 29.2001C97.9998 28.5001 97.4998 28.2001 96.8998 28.2001C95.6998 28.2001 93.9998 29.4001 93.5998 31.1001C92.8997 33.7001 91.0998 35.4001 89.8998 35.4001C88.3998 35.4001 87.5998 33.8001 87.3998 32.1001C86.8998 27.9001 89.4998 22.8001 93.3998 22.8001C94.4998 22.8001 95.7998 23.2001 95.8998 24.4001C96.0226 25.5061 95.3527 25.7815 94.841 25.9918C94.52 26.1238 94.2612 26.2302 94.2998 26.5001C94.3998 27.3001 95.6998 27.5001 96.5998 27.5001C97.3997 27.5001 99.9998 26.9001 99.5998 24.0001C99.2998 21.7001 96.7998 20.6001 93.9998 20.6001C90.6572 20.6001 87.8124 22.2925 85.8752 24.6344C85.6073 24.7926 85.3246 25.0752 84.9997 25.4001C84.3997 26.1001 83.1997 26.8001 81.6997 26.8001C81.4997 26.8001 81.0997 26.7001 81.0997 26.7001C82.0997 24.8001 82.7997 22.8001 82.7997 21.1001C82.7997 18.3001 81.0997 16.9001 79.1997 16.9001C76.7997 16.9001 74.2997 19.0001 74.2997 23.2001C74.2997 25.7001 75.2997 27.7001 76.9997 28.8001C74.9997 32.0001 72.2997 34.7001 71.8997 34.7001C71.7616 34.7001 71.7189 34.5571 71.6727 34.4028C71.652 34.3336 71.6307 34.2621 71.5997 34.2001C71.2997 33.1001 70.9997 30.9001 70.9997 29.6001C70.9997 27.2001 71.3997 24.8001 72.2997 22.3001C72.3997 22.0001 72.4997 21.7001 72.4997 21.5001C72.4997 20.8001 71.9997 20.5001 71.3997 20.5001C70.1997 20.5001 68.2997 21.9001 67.7997 23.4001C67.3997 24.8001 67.1997 26.8001 67.1997 29.2001C67.1997 29.6403 67.2068 30.0769 67.2213 30.5068C64.8348 33.7239 61.8899 34.8001 60.9997 34.8001C59.8997 34.8001 59.6997 33.8001 59.8997 33.4001C60.5997 30.5001 61.4997 27.2001 62.2997 24.9001C62.6997 23.8001 62.8997 22.8001 62.7997 22.2001C62.5997 21.1001 61.8997 20.6001 60.8997 20.6001C58.4997 20.6001 54.6997 23.0001 52.1997 26.3001L52.9997 22.7001C53.0997 22.3001 53.0997 22.0001 53.0997 21.8001C52.9997 21.1001 52.5997 20.8001 51.9997 20.8001C49.1997 20.8001 48.6997 22.2001 48.3997 23.6001C48.3417 23.9476 47.5459 28.0518 46.8863 31.4447C44.7524 33.4031 42.3614 34.7001 41.6998 34.7001C40.8998 34.7001 40.5998 34.1001 40.5998 33.6001C40.5998 33.2548 40.7985 32.3132 40.9863 31.4236C41.1248 30.7676 41.2573 30.1397 41.2998 29.8001C41.3998 29.4001 41.3998 29.1001 41.3998 28.9001C41.2998 28.3001 40.7998 28.0001 40.1998 28.0001C38.9998 28.0001 37.2998 29.2001 36.8998 30.9001C36.2998 33.5001 34.4998 35.2001 33.2998 35.2001C31.7998 35.2001 30.9998 33.6001 30.7998 32.0001C30.2998 28.4001 32.5998 22.6001 36.7998 22.6001C37.9998 22.6001 39.1998 23.0001 39.2998 24.2001C39.4209 25.3506 38.8087 25.6211 38.3291 25.8331C38.0166 25.9713 37.7603 26.0845 37.7998 26.4001C37.8998 27.2001 39.1998 27.4001 39.9998 27.4001C40.8998 27.4001 43.3998 26.8001 42.9998 23.9001C42.6998 21.6001 40.2998 20.4001 37.3998 20.4001C30.6739 20.4001 26.1982 27.0526 26.682 32.3262C24.9739 34.325 23.2674 35.5269 20.1997 37.1001C18.4997 38.0001 16.4997 38.5001 14.6997 38.5001C9.09971 38.5001 6.39971 33.4001 5.89971 29.0001C4.49971 17.8001 14.4997 2.3001 21.3997 2.3001C22.9997 2.3001 24.3997 3.7001 24.6997 5.9001C25.0997 9.3001 24.9997 11.7001 21.4997 14.6001C21.0997 14.9001 20.9997 15.4001 21.1997 15.7001C21.4997 16.1001 22.4997 16.2001 24.3997 15.2001C28.1997 13.3001 29.4997 10.4001 29.0997 7.0001C28.6997 3.2001 25.3997 0.100098 20.9997 0.100098C18.7997 0.100098 16.4997 0.700098 14.3997 2.0001C5.29971 7.6001 -0.600288 20.2001 0.499712 29.8001C0.899712 32.9001 2.19971 36.2001 4.59971 38.5001C6.19971 40.0001 9.09971 41.8001 12.5997 41.8001C16.3997 41.8001 19.5997 40.4001 22.3997 38.6001ZM78.5997 25.4001C77.5997 24.3001 76.7997 22.6001 76.7997 21.0001C76.7997 20.1001 77.0997 19.1001 77.7997 19.1001C78.3997 19.1001 79.1997 20.0001 79.1997 22.1001C79.1997 23.2001 78.9997 24.3001 78.5997 25.4001Z" fill="#6D6D6D" fill-opacity="0.7"/>
</svg>
