<svg width="574" height="358" viewBox="0 0 574 358" fill="none" xmlns="http://www.w3.org/2000/svg">
<g filter="url(#filter0_ddddd_7_523)">
<rect x="19" y="17" width="355.488" height="117.445" rx="26.7995" fill="#F5F5F5"/>
</g>
<rect x="47.376" y="43.0112" width="64.8248" height="66.9988" rx="32.4124" fill="#EAEAEA"/>
<path d="M95.4659 66.5784C95.4659 69.6952 93.4006 72.3426 90.5655 73.2062C90.8847 72.1736 91.0537 71.0658 91.0537 69.9393C91.0537 65.8275 88.8382 62.2228 85.5525 60.2701C86.4537 59.8571 87.4489 59.6128 88.5191 59.6128C92.3493 59.6128 95.4659 62.7295 95.4659 66.5784ZM94.0577 75.1965C93.2692 74.9712 92.4055 75.0837 91.7108 75.478C90.8847 75.9286 90.0023 76.1917 89.1011 76.2481C88.7256 76.8113 88.2937 77.3556 87.7868 77.8437C91.4105 79.0266 94.0578 82.1621 94.6586 85.8985H95.9541C96.8178 85.8985 97.6064 85.4481 98.0007 84.7158C98.3762 84.0211 98.5639 83.2322 98.5639 82.4436V81.1106C98.5639 78.3131 96.7051 75.8912 94.0577 75.1965ZM74.0243 60.2701C73.1231 59.8571 72.128 59.6128 71.0578 59.6128C67.2276 59.6128 64.1109 62.7295 64.1109 66.5784C64.1109 69.6952 66.1762 72.3426 69.0113 73.2062C68.6921 72.1736 68.5231 71.0658 68.5231 69.9393C68.5231 65.8275 70.7386 62.2228 74.0243 60.2701ZM71.79 77.8437C71.2831 77.3556 70.8513 76.8113 70.4757 76.2481C69.5745 76.1917 68.6922 75.9286 67.866 75.478C67.1713 75.0837 66.3077 74.9712 65.5191 75.1965C62.8718 75.8912 61.0129 78.3131 61.0129 81.1106V82.4436C61.0129 83.2322 61.2007 84.0211 61.5762 84.7158C61.9705 85.4481 62.7591 85.8985 63.604 85.8985H64.9183C65.5191 82.1621 68.1664 79.0266 71.79 77.8437ZM86.5101 80.3974C86.1909 80.3223 85.8529 80.2658 85.5149 80.2658C84.8766 80.2658 84.2194 80.4348 83.6562 80.754C82.4545 81.4111 81.1215 81.7492 79.7884 81.7492C78.4554 81.7492 77.1223 81.4111 75.9207 80.754C75.3574 80.4348 74.7003 80.2658 74.0619 80.2658C73.724 80.2658 73.386 80.3223 73.0668 80.3974C69.8374 81.2611 67.5844 84.2085 67.5844 87.5881V89.2218C67.5844 90.1793 67.8284 91.1368 68.279 91.9629C68.7484 92.8641 69.6872 93.4087 70.7386 93.4087H88.8382C89.8896 93.4087 90.8284 92.8641 91.2978 91.9629C91.7484 91.1368 91.9925 90.1793 91.9925 89.2218V87.5881C91.9925 84.2085 89.7395 81.2611 86.5101 80.3974ZM88.2374 69.9393C88.2374 65.2736 84.4541 61.4903 79.7884 61.4903C75.1227 61.4903 71.3395 65.2736 71.3395 69.9393C71.3395 74.605 75.1227 78.3883 79.7884 78.3883C84.4541 78.3883 88.2374 74.605 88.2374 69.9393Z" fill="#1E1E1E"/>
<path d="M151.428 59.1951V70.4698H149.167V63.1364L146.146 70.4698H144.434L141.397 63.1364V70.4698H139.136V59.1951H141.704L145.29 67.5785L148.876 59.1951H151.428ZM161.983 65.8016C161.983 66.1247 161.961 66.4155 161.918 66.6739H155.376C155.43 67.32 155.656 67.8261 156.055 68.1923C156.453 68.5584 156.943 68.7415 157.525 68.7415C158.365 68.7415 158.962 68.3807 159.318 67.6592H161.757C161.498 68.5207 161.003 69.2315 160.271 69.7914C159.538 70.3406 158.639 70.6152 157.573 70.6152C156.712 70.6152 155.936 70.4268 155.247 70.0499C154.569 69.6622 154.036 69.1184 153.648 68.4184C153.271 67.7185 153.083 66.9108 153.083 65.9955C153.083 65.0694 153.271 64.2563 153.648 63.5564C154.025 62.8564 154.553 62.318 155.231 61.9411C155.909 61.5642 156.69 61.3757 157.573 61.3757C158.424 61.3757 159.183 61.5588 159.851 61.9249C160.529 62.2911 161.051 62.8133 161.418 63.4918C161.794 64.1594 161.983 64.9294 161.983 65.8016ZM159.641 65.1555C159.63 64.574 159.42 64.111 159.011 63.7664C158.602 63.411 158.101 63.2333 157.509 63.2333C156.949 63.2333 156.475 63.4056 156.087 63.7502C155.71 64.084 155.479 64.5525 155.393 65.1555H159.641ZM165.895 62.9103C166.186 62.4364 166.563 62.0649 167.026 61.7957C167.5 61.5265 168.038 61.3919 168.641 61.3919V63.7664H168.043C167.333 63.7664 166.794 63.9333 166.428 64.2671C166.073 64.6009 165.895 65.1824 165.895 66.0116V70.4698H163.634V61.5211H165.895V62.9103ZM178.612 61.5211V70.4698H176.335V69.3391C176.044 69.7268 175.662 70.0337 175.188 70.2599C174.725 70.4752 174.219 70.5829 173.669 70.5829C172.969 70.5829 172.35 70.4375 171.812 70.1468C171.273 69.8453 170.848 69.4091 170.536 68.8384C170.234 68.2569 170.083 67.5677 170.083 66.7708V61.5211H172.345V66.4478C172.345 67.1585 172.522 67.7077 172.878 68.0954C173.233 68.4723 173.718 68.6607 174.332 68.6607C174.956 68.6607 175.446 68.4723 175.802 68.0954C176.157 67.7077 176.335 67.1585 176.335 66.4478V61.5211H178.612ZM183.105 62.8133C183.396 62.4041 183.794 62.0649 184.3 61.7957C184.817 61.5157 185.404 61.3757 186.061 61.3757C186.825 61.3757 187.515 61.5642 188.128 61.9411C188.753 62.318 189.243 62.8564 189.598 63.5564C189.964 64.2456 190.147 65.0478 190.147 65.9632C190.147 66.8785 189.964 67.6915 189.598 68.4023C189.243 69.1022 188.753 69.646 188.128 70.0337C187.515 70.4214 186.825 70.6152 186.061 70.6152C185.404 70.6152 184.822 70.4806 184.316 70.2114C183.821 69.9422 183.417 69.603 183.105 69.1938V74.7342H180.843V61.5211H183.105V62.8133ZM187.838 65.9632C187.838 65.4247 187.725 64.9617 187.498 64.574C187.283 64.1756 186.992 63.8741 186.626 63.6695C186.271 63.4649 185.883 63.3626 185.463 63.3626C185.054 63.3626 184.666 63.4702 184.3 63.6856C183.945 63.8902 183.654 64.1917 183.428 64.5902C183.212 64.9886 183.105 65.457 183.105 65.9955C183.105 66.5339 183.212 67.0023 183.428 67.4008C183.654 67.7992 183.945 68.1061 184.3 68.3215C184.666 68.5261 185.054 68.6284 185.463 68.6284C185.883 68.6284 186.271 68.5207 186.626 68.3054C186.992 68.09 187.283 67.7831 187.498 67.3846C187.725 66.9862 187.838 66.5124 187.838 65.9632ZM191.209 65.9632C191.209 65.0586 191.387 64.2563 191.742 63.5564C192.108 62.8564 192.598 62.318 193.212 61.9411C193.837 61.5642 194.531 61.3757 195.296 61.3757C195.964 61.3757 196.545 61.5103 197.041 61.7796C197.547 62.0488 197.95 62.388 198.252 62.7972V61.5211H200.53V70.4698H198.252V69.1615C197.961 69.5814 197.557 69.9314 197.041 70.2114C196.534 70.4806 195.948 70.6152 195.28 70.6152C194.526 70.6152 193.837 70.4214 193.212 70.0337C192.598 69.646 192.108 69.1022 191.742 68.4023C191.387 67.6915 191.209 66.8785 191.209 65.9632ZM198.252 65.9955C198.252 65.4463 198.144 64.9778 197.929 64.5902C197.714 64.1917 197.423 63.8902 197.057 63.6856C196.691 63.4702 196.297 63.3626 195.878 63.3626C195.458 63.3626 195.07 63.4649 194.714 63.6695C194.359 63.8741 194.068 64.1756 193.842 64.574C193.627 64.9617 193.519 65.4247 193.519 65.9632C193.519 66.5016 193.627 66.9754 193.842 67.3846C194.068 67.7831 194.359 68.09 194.714 68.3054C195.081 68.5207 195.468 68.6284 195.878 68.6284C196.297 68.6284 196.691 68.5261 197.057 68.3215C197.423 68.1061 197.714 67.8046 197.929 67.4169C198.144 67.0185 198.252 66.5447 198.252 65.9955ZM208.036 70.4698L205 66.6578V70.4698H202.738V58.5167H205V65.3171L208.004 61.5211H210.944L207.003 66.0116L210.976 70.4698H208.036ZM211.59 65.9632C211.59 65.0586 211.767 64.2563 212.123 63.5564C212.489 62.8564 212.979 62.318 213.593 61.9411C214.217 61.5642 214.912 61.3757 215.676 61.3757C216.344 61.3757 216.926 61.5103 217.421 61.7796C217.927 62.0488 218.331 62.388 218.632 62.7972V61.5211H220.91V70.4698H218.632V69.1615C218.342 69.5814 217.938 69.9314 217.421 70.2114C216.915 70.4806 216.328 70.6152 215.66 70.6152C214.907 70.6152 214.217 70.4214 213.593 70.0337C212.979 69.646 212.489 69.1022 212.123 68.4023C211.767 67.6915 211.59 66.8785 211.59 65.9632ZM218.632 65.9955C218.632 65.4463 218.525 64.9778 218.309 64.5902C218.094 64.1917 217.803 63.8902 217.437 63.6856C217.071 63.4702 216.678 63.3626 216.258 63.3626C215.838 63.3626 215.45 63.4649 215.095 63.6695C214.74 63.8741 214.449 64.1756 214.223 64.574C214.007 64.9617 213.9 65.4247 213.9 65.9632C213.9 66.5016 214.007 66.9754 214.223 67.3846C214.449 67.7831 214.74 68.09 215.095 68.3054C215.461 68.5207 215.849 68.6284 216.258 68.6284C216.678 68.6284 217.071 68.5261 217.437 68.3215C217.803 68.1061 218.094 67.8046 218.309 67.4169C218.525 67.0185 218.632 66.5447 218.632 65.9955ZM228.078 61.3919C229.144 61.3919 230.005 61.7311 230.662 62.4095C231.319 63.0772 231.647 64.0141 231.647 65.2201V70.4698H229.386V65.527C229.386 64.8163 229.208 64.2725 228.853 63.8956C228.498 63.5079 228.013 63.3141 227.399 63.3141C226.775 63.3141 226.279 63.5079 225.913 63.8956C225.558 64.2725 225.38 64.8163 225.38 65.527V70.4698H223.119V61.5211H225.38V62.6357C225.682 62.248 226.064 61.9465 226.527 61.7311C227.001 61.505 227.518 61.3919 228.078 61.3919ZM242.88 70.5829C241.825 70.5829 240.856 70.3352 239.973 69.8399C239.09 69.3445 238.39 68.6607 237.873 67.7885C237.356 66.9054 237.098 65.9093 237.098 64.8002C237.098 63.7018 237.356 62.7164 237.873 61.8442C238.39 60.9611 239.09 60.272 239.973 59.7766C240.856 59.2812 241.825 59.0336 242.88 59.0336C243.947 59.0336 244.916 59.2812 245.788 59.7766C246.671 60.272 247.366 60.9611 247.872 61.8442C248.389 62.7164 248.647 63.7018 248.647 64.8002C248.647 65.9093 248.389 66.9054 247.872 67.7885C247.366 68.6607 246.671 69.3445 245.788 69.8399C244.905 70.3352 243.936 70.5829 242.88 70.5829ZM242.88 68.5638C243.559 68.5638 244.157 68.413 244.673 68.1115C245.19 67.7992 245.594 67.3577 245.885 66.787C246.176 66.2162 246.321 65.554 246.321 64.8002C246.321 64.0464 246.176 63.3895 245.885 62.8295C245.594 62.2588 245.19 61.8226 244.673 61.5211C244.157 61.2196 243.559 61.0688 242.88 61.0688C242.202 61.0688 241.599 61.2196 241.071 61.5211C240.554 61.8226 240.151 62.2588 239.86 62.8295C239.569 63.3895 239.424 64.0464 239.424 64.8002C239.424 65.554 239.569 66.2162 239.86 66.787C240.151 67.3577 240.554 67.7992 241.071 68.1115C241.599 68.413 242.202 68.5638 242.88 68.5638ZM252.591 62.9103C252.882 62.4364 253.259 62.0649 253.722 61.7957C254.195 61.5265 254.734 61.3919 255.337 61.3919V63.7664H254.739C254.029 63.7664 253.49 63.9333 253.124 64.2671C252.769 64.6009 252.591 65.1824 252.591 66.0116V70.4698H250.329V61.5211H252.591V62.9103ZM260.365 61.3757C261.033 61.3757 261.62 61.5103 262.126 61.7796C262.632 62.038 263.03 62.3772 263.321 62.7972V61.5211H265.599V70.5345C265.599 71.3636 265.432 72.1013 265.098 72.7474C264.764 73.4043 264.264 73.9212 263.596 74.2981C262.928 74.6858 262.121 74.8796 261.173 74.8796C259.902 74.8796 258.858 74.5835 258.039 73.9912C257.232 73.3989 256.774 72.5913 256.666 71.5682H258.911C259.03 71.9775 259.283 72.3005 259.671 72.5374C260.069 72.7851 260.548 72.9089 261.108 72.9089C261.765 72.9089 262.298 72.7097 262.707 72.3113C263.117 71.9236 263.321 71.3313 263.321 70.5345V69.1453C263.03 69.5653 262.627 69.9153 262.11 70.1952C261.604 70.4752 261.022 70.6152 260.365 70.6152C259.611 70.6152 258.922 70.4214 258.298 70.0337C257.673 69.646 257.178 69.1022 256.812 68.4023C256.456 67.6915 256.279 66.8785 256.279 65.9632C256.279 65.0586 256.456 64.2563 256.812 63.5564C257.178 62.8564 257.668 62.318 258.282 61.9411C258.906 61.5642 259.601 61.3757 260.365 61.3757ZM263.321 65.9955C263.321 65.4463 263.214 64.9778 262.998 64.5902C262.783 64.1917 262.492 63.8902 262.126 63.6856C261.76 63.4702 261.367 63.3626 260.947 63.3626C260.527 63.3626 260.139 63.4649 259.784 63.6695C259.428 63.8741 259.138 64.1756 258.911 64.574C258.696 64.9617 258.588 65.4247 258.588 65.9632C258.588 66.5016 258.696 66.9754 258.911 67.3846C259.138 67.7831 259.428 68.09 259.784 68.3054C260.15 68.5207 260.538 68.6284 260.947 68.6284C261.367 68.6284 261.76 68.5261 262.126 68.3215C262.492 68.1061 262.783 67.8046 262.998 67.4169C263.214 67.0185 263.321 66.5447 263.321 65.9955ZM267.226 65.9632C267.226 65.0586 267.404 64.2563 267.759 63.5564C268.125 62.8564 268.615 62.318 269.229 61.9411C269.854 61.5642 270.548 61.3757 271.313 61.3757C271.98 61.3757 272.562 61.5103 273.057 61.7796C273.563 62.0488 273.967 62.388 274.269 62.7972V61.5211H276.546V70.4698H274.269V69.1615C273.978 69.5814 273.574 69.9314 273.057 70.2114C272.551 70.4806 271.964 70.6152 271.297 70.6152C270.543 70.6152 269.854 70.4214 269.229 70.0337C268.615 69.646 268.125 69.1022 267.759 68.4023C267.404 67.6915 267.226 66.8785 267.226 65.9632ZM274.269 65.9955C274.269 65.4463 274.161 64.9778 273.946 64.5902C273.73 64.1917 273.439 63.8902 273.073 63.6856C272.707 63.4702 272.314 63.3626 271.894 63.3626C271.474 63.3626 271.087 63.4649 270.731 63.6695C270.376 63.8741 270.085 64.1756 269.859 64.574C269.644 64.9617 269.536 65.4247 269.536 65.9632C269.536 66.5016 269.644 66.9754 269.859 67.3846C270.085 67.7831 270.376 68.09 270.731 68.3054C271.097 68.5207 271.485 68.6284 271.894 68.6284C272.314 68.6284 272.707 68.5261 273.073 68.3215C273.439 68.1061 273.73 67.8046 273.946 67.4169C274.161 67.0185 274.269 66.5447 274.269 65.9955ZM283.714 61.3919C284.78 61.3919 285.641 61.7311 286.298 62.4095C286.955 63.0772 287.284 64.0141 287.284 65.2201V70.4698H285.022V65.527C285.022 64.8163 284.845 64.2725 284.489 63.8956C284.134 63.5079 283.649 63.3141 283.035 63.3141C282.411 63.3141 281.915 63.5079 281.549 63.8956C281.194 64.2725 281.016 64.8163 281.016 65.527V70.4698H278.755V61.5211H281.016V62.6357C281.318 62.248 281.7 61.9465 282.163 61.7311C282.637 61.505 283.154 61.3919 283.714 61.3919ZM290.581 60.455C290.183 60.455 289.849 60.3312 289.58 60.0835C289.321 59.8251 289.192 59.5074 289.192 59.1305C289.192 58.7536 289.321 58.4413 289.58 58.1936C289.849 57.9352 290.183 57.8059 290.581 57.8059C290.979 57.8059 291.308 57.9352 291.566 58.1936C291.836 58.4413 291.97 58.7536 291.97 59.1305C291.97 59.5074 291.836 59.8251 291.566 60.0835C291.308 60.3312 290.979 60.455 290.581 60.455ZM291.696 61.5211V70.4698H289.434V61.5211H291.696ZM297.354 70.6152C296.622 70.6152 295.965 70.486 295.384 70.2276C294.802 69.9583 294.339 69.5976 293.994 69.1453C293.661 68.693 293.478 68.1923 293.445 67.6431H295.723C295.766 67.9877 295.933 68.273 296.224 68.4992C296.525 68.7253 296.897 68.8384 297.338 68.8384C297.769 68.8384 298.103 68.7523 298.34 68.58C298.587 68.4077 298.711 68.1869 298.711 67.9177C298.711 67.6269 298.56 67.4116 298.259 67.2716C297.968 67.1208 297.5 66.9593 296.854 66.787C296.186 66.6254 295.637 66.4585 295.206 66.2862C294.786 66.1139 294.42 65.8501 294.108 65.4947C293.806 65.1394 293.655 64.6602 293.655 64.0571C293.655 63.5618 293.795 63.1095 294.075 62.7003C294.366 62.2911 294.775 61.968 295.303 61.7311C295.841 61.4942 296.471 61.3757 297.193 61.3757C298.259 61.3757 299.11 61.645 299.745 62.1834C300.38 62.711 300.73 63.4272 300.795 64.3317H298.63C298.598 63.9764 298.447 63.6964 298.178 63.4918C297.92 63.2764 297.57 63.1687 297.128 63.1687C296.719 63.1687 296.401 63.2441 296.175 63.3949C295.96 63.5456 295.852 63.7556 295.852 64.0248C295.852 64.3263 296.003 64.5579 296.304 64.7194C296.606 64.8702 297.074 65.0263 297.71 65.1878C298.356 65.3494 298.889 65.5163 299.309 65.6886C299.729 65.8609 300.089 66.1301 300.391 66.4962C300.703 66.8516 300.865 67.3254 300.876 67.9177C300.876 68.4346 300.73 68.8976 300.439 69.3068C300.159 69.716 299.75 70.0391 299.212 70.276C298.684 70.5022 298.065 70.6152 297.354 70.6152ZM302.15 65.9632C302.15 65.0586 302.328 64.2563 302.683 63.5564C303.05 62.8564 303.54 62.318 304.153 61.9411C304.778 61.5642 305.473 61.3757 306.237 61.3757C306.905 61.3757 307.486 61.5103 307.982 61.7796C308.488 62.0488 308.892 62.388 309.193 62.7972V61.5211H311.471V70.4698H309.193V69.1615C308.902 69.5814 308.499 69.9314 307.982 70.2114C307.476 70.4806 306.889 70.6152 306.221 70.6152C305.467 70.6152 304.778 70.4214 304.153 70.0337C303.54 69.646 303.05 69.1022 302.683 68.4023C302.328 67.6915 302.15 66.8785 302.15 65.9632ZM309.193 65.9955C309.193 65.4463 309.085 64.9778 308.87 64.5902C308.655 64.1917 308.364 63.8902 307.998 63.6856C307.632 63.4702 307.239 63.3626 306.819 63.3626C306.399 63.3626 306.011 63.4649 305.656 63.6695C305.3 63.8741 305.009 64.1756 304.783 64.574C304.568 64.9617 304.46 65.4247 304.46 65.9632C304.46 66.5016 304.568 66.9754 304.783 67.3846C305.009 67.7831 305.3 68.09 305.656 68.3054C306.022 68.5207 306.409 68.6284 306.819 68.6284C307.239 68.6284 307.632 68.5261 307.998 68.3215C308.364 68.1061 308.655 67.8046 308.87 67.4169C309.085 67.0185 309.193 66.5447 309.193 65.9955ZM317.104 70.6152C316.371 70.6152 315.715 70.486 315.133 70.2276C314.552 69.9583 314.089 69.5976 313.744 69.1453C313.41 68.693 313.227 68.1923 313.195 67.6431H315.472C315.515 67.9877 315.682 68.273 315.973 68.4992C316.275 68.7253 316.646 68.8384 317.088 68.8384C317.518 68.8384 317.852 68.7523 318.089 68.58C318.337 68.4077 318.461 68.1869 318.461 67.9177C318.461 67.6269 318.31 67.4116 318.008 67.2716C317.718 67.1208 317.249 66.9593 316.603 66.787C315.935 66.6254 315.386 66.4585 314.955 66.2862C314.535 66.1139 314.169 65.8501 313.857 65.4947C313.555 65.1394 313.405 64.6602 313.405 64.0571C313.405 63.5618 313.545 63.1095 313.825 62.7003C314.115 62.2911 314.525 61.968 315.052 61.7311C315.591 61.4942 316.221 61.3757 316.942 61.3757C318.008 61.3757 318.859 61.645 319.494 62.1834C320.13 62.711 320.48 63.4272 320.544 64.3317H318.38C318.348 63.9764 318.197 63.6964 317.928 63.4918C317.669 63.2764 317.319 63.1687 316.878 63.1687C316.468 63.1687 316.151 63.2441 315.925 63.3949C315.709 63.5456 315.602 63.7556 315.602 64.0248C315.602 64.3263 315.752 64.5579 316.054 64.7194C316.355 64.8702 316.824 65.0263 317.459 65.1878C318.105 65.3494 318.638 65.5163 319.058 65.6886C319.478 65.8609 319.839 66.1301 320.141 66.4962C320.453 66.8516 320.614 67.3254 320.625 67.9177C320.625 68.4346 320.48 68.8976 320.189 69.3068C319.909 69.716 319.5 70.0391 318.961 70.276C318.434 70.5022 317.814 70.6152 317.104 70.6152ZM323.628 60.455C323.23 60.455 322.896 60.3312 322.627 60.0835C322.368 59.8251 322.239 59.5074 322.239 59.1305C322.239 58.7536 322.368 58.4413 322.627 58.1936C322.896 57.9352 323.23 57.8059 323.628 57.8059C324.027 57.8059 324.355 57.9352 324.614 58.1936C324.883 58.4413 325.017 58.7536 325.017 59.1305C325.017 59.5074 324.883 59.8251 324.614 60.0835C324.355 60.3312 324.027 60.455 323.628 60.455ZM324.743 61.5211V70.4698H322.481V61.5211H324.743ZM148.779 94.4698H146.518L141.397 86.7326V94.4698H139.136V83.1789H141.397L146.518 90.9324V83.1789H148.779V94.4698ZM154.988 94.6152C154.126 94.6152 153.351 94.4268 152.662 94.0499C151.972 93.6622 151.429 93.1184 151.03 92.4184C150.643 91.7185 150.449 90.9108 150.449 89.9955C150.449 89.0801 150.648 88.2725 151.046 87.5725C151.456 86.8726 152.01 86.3341 152.71 85.9572C153.41 85.5696 154.191 85.3757 155.052 85.3757C155.914 85.3757 156.695 85.5696 157.394 85.9572C158.094 86.3341 158.644 86.8726 159.042 87.5725C159.451 88.2725 159.656 89.0801 159.656 89.9955C159.656 90.9108 159.446 91.7185 159.026 92.4184C158.617 93.1184 158.057 93.6622 157.346 94.0499C156.646 94.4268 155.86 94.6152 154.988 94.6152ZM154.988 92.6446C155.397 92.6446 155.779 92.5476 156.135 92.3538C156.501 92.1492 156.791 91.8477 157.007 91.4492C157.222 91.0508 157.33 90.5662 157.33 89.9955C157.33 89.1448 157.104 88.4933 156.651 88.041C156.21 87.5779 155.666 87.3464 155.02 87.3464C154.374 87.3464 153.83 87.5779 153.389 88.041C152.958 88.4933 152.742 89.1448 152.742 89.9955C152.742 90.8462 152.952 91.5031 153.372 91.9661C153.803 92.4184 154.342 92.6446 154.988 92.6446ZM164.631 84.7781V82.6943H168.523V94.4698H166.197V84.7781H164.631ZM174.283 89.9632C174.283 89.0586 174.461 88.2563 174.816 87.5564C175.183 86.8564 175.678 86.318 176.303 85.9411C176.927 85.5642 177.622 85.3757 178.386 85.3757C178.968 85.3757 179.522 85.505 180.05 85.7634C180.578 86.0111 180.998 86.3449 181.31 86.7649V82.5167H183.604V94.4698H181.31V93.1453C181.03 93.5868 180.637 93.9422 180.131 94.2114C179.625 94.4806 179.038 94.6152 178.37 94.6152C177.616 94.6152 176.927 94.4214 176.303 94.0337C175.678 93.646 175.183 93.1022 174.816 92.4023C174.461 91.6915 174.283 90.8785 174.283 89.9632ZM181.326 89.9955C181.326 89.4463 181.218 88.9778 181.003 88.5902C180.788 88.1917 180.497 87.8902 180.131 87.6856C179.765 87.4702 179.372 87.3626 178.952 87.3626C178.532 87.3626 178.144 87.4649 177.789 87.6695C177.433 87.8741 177.142 88.1756 176.916 88.574C176.701 88.9617 176.593 89.4247 176.593 89.9632C176.593 90.5016 176.701 90.9754 176.916 91.3846C177.142 91.7831 177.433 92.09 177.789 92.3054C178.155 92.5207 178.542 92.6284 178.952 92.6284C179.372 92.6284 179.765 92.5261 180.131 92.3215C180.497 92.1061 180.788 91.8046 181.003 91.4169C181.218 91.0185 181.326 90.5447 181.326 89.9955ZM186.959 84.455C186.561 84.455 186.227 84.3312 185.958 84.0835C185.699 83.8251 185.57 83.5074 185.57 83.1305C185.57 82.7536 185.699 82.4413 185.958 82.1936C186.227 81.9352 186.561 81.8059 186.959 81.8059C187.358 81.8059 187.686 81.9352 187.945 82.1936C188.214 82.4413 188.348 82.7536 188.348 83.1305C188.348 83.5074 188.214 83.8251 187.945 84.0835C187.686 84.3312 187.358 84.455 186.959 84.455ZM188.074 85.5211V94.4698H185.812V85.5211H188.074ZM196.418 83.1951V94.4698H194.157V83.1951H196.418ZM203.612 85.3919C204.678 85.3919 205.539 85.7311 206.196 86.4095C206.853 87.0772 207.181 88.0141 207.181 89.2201V94.4698H204.92V89.527C204.92 88.8163 204.742 88.2725 204.387 87.8956C204.032 87.5079 203.547 87.3141 202.933 87.3141C202.309 87.3141 201.813 87.5079 201.447 87.8956C201.092 88.2725 200.914 88.8163 200.914 89.527V94.4698H198.653V85.5211H200.914V86.6357C201.216 86.248 201.598 85.9465 202.061 85.7311C202.535 85.505 203.052 85.3919 203.612 85.3919ZM208.75 89.9632C208.75 89.0586 208.928 88.2563 209.283 87.5564C209.65 86.8564 210.145 86.318 210.77 85.9411C211.394 85.5642 212.089 85.3757 212.853 85.3757C213.435 85.3757 213.989 85.505 214.517 85.7634C215.045 86.0111 215.465 86.3449 215.777 86.7649V82.5167H218.071V94.4698H215.777V93.1453C215.497 93.5868 215.104 93.9422 214.598 94.2114C214.092 94.4806 213.505 94.6152 212.837 94.6152C212.083 94.6152 211.394 94.4214 210.77 94.0337C210.145 93.646 209.65 93.1022 209.283 92.4023C208.928 91.6915 208.75 90.8785 208.75 89.9632ZM215.793 89.9955C215.793 89.4463 215.685 88.9778 215.47 88.5902C215.255 88.1917 214.964 87.8902 214.598 87.6856C214.232 87.4702 213.839 87.3626 213.419 87.3626C212.999 87.3626 212.611 87.4649 212.256 87.6695C211.9 87.8741 211.609 88.1756 211.383 88.574C211.168 88.9617 211.06 89.4247 211.06 89.9632C211.06 90.5016 211.168 90.9754 211.383 91.3846C211.609 91.7831 211.9 92.09 212.256 92.3054C212.622 92.5207 213.009 92.6284 213.419 92.6284C213.839 92.6284 214.232 92.5261 214.598 92.3215C214.964 92.1061 215.255 91.8046 215.47 91.4169C215.685 91.0185 215.793 90.5447 215.793 89.9955ZM224.253 94.6152C223.391 94.6152 222.616 94.4268 221.927 94.0499C221.238 93.6622 220.694 93.1184 220.295 92.4184C219.908 91.7185 219.714 90.9108 219.714 89.9955C219.714 89.0801 219.913 88.2725 220.312 87.5725C220.721 86.8726 221.275 86.3341 221.975 85.9572C222.675 85.5696 223.456 85.3757 224.318 85.3757C225.179 85.3757 225.96 85.5696 226.66 85.9572C227.36 86.3341 227.909 86.8726 228.307 87.5725C228.717 88.2725 228.921 89.0801 228.921 89.9955C228.921 90.9108 228.711 91.7185 228.291 92.4184C227.882 93.1184 227.322 93.6622 226.611 94.0499C225.911 94.4268 225.125 94.6152 224.253 94.6152ZM224.253 92.6446C224.662 92.6446 225.044 92.5476 225.4 92.3538C225.766 92.1492 226.057 91.8477 226.272 91.4492C226.487 91.0508 226.595 90.5662 226.595 89.9955C226.595 89.1448 226.369 88.4933 225.917 88.041C225.475 87.5779 224.931 87.3464 224.285 87.3464C223.639 87.3464 223.095 87.5779 222.654 88.041C222.223 88.4933 222.008 89.1448 222.008 89.9955C222.008 90.8462 222.218 91.5031 222.638 91.9661C223.068 92.4184 223.607 92.6446 224.253 92.6446ZM235.539 85.3919C236.605 85.3919 237.467 85.7311 238.123 86.4095C238.78 87.0772 239.109 88.0141 239.109 89.2201V94.4698H236.847V89.527C236.847 88.8163 236.67 88.2725 236.314 87.8956C235.959 87.5079 235.474 87.3141 234.861 87.3141C234.236 87.3141 233.741 87.5079 233.374 87.8956C233.019 88.2725 232.841 88.8163 232.841 89.527V94.4698H230.58V85.5211H232.841V86.6357C233.143 86.248 233.525 85.9465 233.988 85.7311C234.462 85.505 234.979 85.3919 235.539 85.3919ZM249.578 89.8016C249.578 90.1247 249.556 90.4155 249.513 90.6739H242.971C243.025 91.32 243.251 91.8261 243.65 92.1923C244.048 92.5584 244.538 92.7415 245.12 92.7415C245.96 92.7415 246.557 92.3807 246.913 91.6592H249.352C249.093 92.5207 248.598 93.2315 247.866 93.7914C247.134 94.3406 246.234 94.6152 245.168 94.6152C244.307 94.6152 243.531 94.4268 242.842 94.0499C242.164 93.6622 241.631 93.1184 241.243 92.4184C240.866 91.7185 240.678 90.9108 240.678 89.9955C240.678 89.0694 240.866 88.2563 241.243 87.5564C241.62 86.8564 242.148 86.318 242.826 85.9411C243.504 85.5642 244.285 85.3757 245.168 85.3757C246.019 85.3757 246.778 85.5588 247.446 85.9249C248.124 86.2911 248.647 86.8133 249.013 87.4918C249.39 88.1594 249.578 88.9294 249.578 89.8016ZM247.236 89.1555C247.225 88.574 247.015 88.111 246.606 87.7664C246.197 87.411 245.696 87.2333 245.104 87.2333C244.544 87.2333 244.07 87.4056 243.682 87.7502C243.305 88.084 243.074 88.5525 242.988 89.1555H247.236ZM254.653 94.6152C253.921 94.6152 253.264 94.486 252.682 94.2276C252.101 93.9583 251.638 93.5976 251.293 93.1453C250.959 92.693 250.776 92.1923 250.744 91.6431H253.022C253.065 91.9877 253.232 92.273 253.522 92.4992C253.824 92.7253 254.195 92.8384 254.637 92.8384C255.068 92.8384 255.401 92.7523 255.638 92.58C255.886 92.4077 256.01 92.1869 256.01 91.9177C256.01 91.6269 255.859 91.4116 255.558 91.2716C255.267 91.1208 254.798 90.9593 254.152 90.787C253.485 90.6254 252.935 90.4585 252.505 90.2862C252.085 90.1139 251.719 89.8501 251.406 89.4947C251.105 89.1394 250.954 88.6602 250.954 88.0571C250.954 87.5618 251.094 87.1095 251.374 86.7003C251.665 86.2911 252.074 85.968 252.602 85.7311C253.14 85.4942 253.77 85.3757 254.492 85.3757C255.558 85.3757 256.408 85.645 257.044 86.1834C257.679 86.711 258.029 87.4272 258.094 88.3317H255.929C255.897 87.9764 255.746 87.6964 255.477 87.4918C255.218 87.2764 254.868 87.1687 254.427 87.1687C254.018 87.1687 253.7 87.2441 253.474 87.3949C253.259 87.5456 253.151 87.7556 253.151 88.0248C253.151 88.3263 253.302 88.5579 253.603 88.7194C253.905 88.8702 254.373 89.0263 255.008 89.1878C255.655 89.3494 256.188 89.5163 256.608 89.6886C257.028 89.8609 257.388 90.1301 257.69 90.4962C258.002 90.8516 258.164 91.3254 258.174 91.9177C258.174 92.4346 258.029 92.8976 257.738 93.3068C257.458 93.716 257.049 94.0391 256.511 94.276C255.983 94.5022 255.364 94.6152 254.653 94.6152ZM261.178 84.455C260.779 84.455 260.445 84.3312 260.176 84.0835C259.918 83.8251 259.788 83.5074 259.788 83.1305C259.788 82.7536 259.918 82.4413 260.176 82.1936C260.445 81.9352 260.779 81.8059 261.178 81.8059C261.576 81.8059 261.904 81.9352 262.163 82.1936C262.432 82.4413 262.567 82.7536 262.567 83.1305C262.567 83.5074 262.432 83.8251 262.163 84.0835C261.904 84.3312 261.576 84.455 261.178 84.455ZM262.292 85.5211V94.4698H260.031V85.5211H262.292ZM263.945 89.9632C263.945 89.0586 264.123 88.2563 264.478 87.5564C264.844 86.8564 265.334 86.318 265.948 85.9411C266.572 85.5642 267.267 85.3757 268.032 85.3757C268.699 85.3757 269.281 85.5103 269.776 85.7796C270.282 86.0488 270.686 86.388 270.988 86.7972V85.5211H273.265V94.4698H270.988V93.1615C270.697 93.5814 270.293 93.9314 269.776 94.2114C269.27 94.4806 268.683 94.6152 268.015 94.6152C267.262 94.6152 266.572 94.4214 265.948 94.0337C265.334 93.646 264.844 93.1022 264.478 92.4023C264.123 91.6915 263.945 90.8785 263.945 89.9632ZM270.988 89.9955C270.988 89.4463 270.88 88.9778 270.665 88.5902C270.449 88.1917 270.158 87.8902 269.792 87.6856C269.426 87.4702 269.033 87.3626 268.613 87.3626C268.193 87.3626 267.805 87.4649 267.45 87.6695C267.095 87.8741 266.804 88.1756 266.578 88.574C266.362 88.9617 266.255 89.4247 266.255 89.9632C266.255 90.5016 266.362 90.9754 266.578 91.3846C266.804 91.7831 267.095 92.09 267.45 92.3054C267.816 92.5207 268.204 92.6284 268.613 92.6284C269.033 92.6284 269.426 92.5261 269.792 92.3215C270.158 92.1061 270.449 91.8046 270.665 91.4169C270.88 91.0185 270.988 90.5447 270.988 89.9955Z" fill="black"/>
<defs>
<filter id="filter0_ddddd_7_523" x="0.870906" y="0.44735" width="572.249" height="357.064" filterUnits="userSpaceOnUse" color-interpolation-filters="sRGB">
<feFlood flood-opacity="0" result="BackgroundImageFix"/>
<feColorMatrix in="SourceAlpha" type="matrix" values="0 0 0 0 0 0 0 0 0 0 0 0 0 0 0 0 0 0 127 0" result="hardAlpha"/>
<feOffset/>
<feColorMatrix type="matrix" values="0 0 0 0 0.105882 0 0 0 0 0.113725 0 0 0 0 0.141176 0 0 0 0.1 0"/>
<feBlend mode="normal" in2="BackgroundImageFix" result="effect1_dropShadow_7_523"/>
<feColorMatrix in="SourceAlpha" type="matrix" values="0 0 0 0 0 0 0 0 0 0 0 0 0 0 0 0 0 0 127 0" result="hardAlpha"/>
<feOffset dx="7.88222" dy="9.45866"/>
<feGaussianBlur stdDeviation="13.0057"/>
<feColorMatrix type="matrix" values="0 0 0 0 0.105882 0 0 0 0 0.113725 0 0 0 0 0.141176 0 0 0 0.1 0"/>
<feBlend mode="normal" in2="effect1_dropShadow_7_523" result="effect2_dropShadow_7_523"/>
<feColorMatrix in="SourceAlpha" type="matrix" values="0 0 0 0 0 0 0 0 0 0 0 0 0 0 0 0 0 0 127 0" result="hardAlpha"/>
<feOffset dx="30.7406" dy="37.0464"/>
<feGaussianBlur stdDeviation="24.0408"/>
<feColorMatrix type="matrix" values="0 0 0 0 0.105882 0 0 0 0 0.113725 0 0 0 0 0.141176 0 0 0 0.09 0"/>
<feBlend mode="normal" in2="effect2_dropShadow_7_523" result="effect3_dropShadow_7_523"/>
<feColorMatrix in="SourceAlpha" type="matrix" values="0 0 0 0 0 0 0 0 0 0 0 0 0 0 0 0 0 0 127 0" result="hardAlpha"/>
<feOffset dx="68.5753" dy="82.7633"/>
<feGaussianBlur stdDeviation="32.3171"/>
<feColorMatrix type="matrix" values="0 0 0 0 0.105882 0 0 0 0 0.113725 0 0 0 0 0.141176 0 0 0 0.05 0"/>
<feBlend mode="normal" in2="effect3_dropShadow_7_523" result="effect4_dropShadow_7_523"/>
<feColorMatrix in="SourceAlpha" type="matrix" values="0 0 0 0 0 0 0 0 0 0 0 0 0 0 0 0 0 0 127 0" result="hardAlpha"/>
<feOffset dx="122.174" dy="146.609"/>
<feGaussianBlur stdDeviation="38.2287"/>
<feColorMatrix type="matrix" values="0 0 0 0 0.105882 0 0 0 0 0.113725 0 0 0 0 0.141176 0 0 0 0.01 0"/>
<feBlend mode="normal" in2="effect4_dropShadow_7_523" result="effect5_dropShadow_7_523"/>
<feBlend mode="normal" in="SourceGraphic" in2="effect5_dropShadow_7_523" result="shape"/>
</filter>
</defs>
</svg>
