<svg width="573" height="358" viewBox="0 0 573 358" fill="none" xmlns="http://www.w3.org/2000/svg">
<g filter="url(#filter0_ddddd_7_518)">
<rect x="19" y="17" width="355.208" height="117.353" rx="26.7785" fill="#F5F5F5"/>
</g>
<path d="M146.708 59.176V60.9998H143.706V70.4419H141.446V60.9998H138.444V59.176H146.708ZM156.669 65.7774C156.669 66.1002 156.648 66.3907 156.605 66.6489H150.068C150.122 67.2945 150.348 67.8003 150.746 68.1661C151.144 68.532 151.633 68.7149 152.214 68.7149C153.054 68.7149 153.651 68.3544 154.006 67.6335H156.443C156.185 68.4943 155.69 69.2045 154.958 69.764C154.227 70.3128 153.328 70.5872 152.263 70.5872C151.402 70.5872 150.627 70.3989 149.939 70.0222C149.261 69.6349 148.728 69.0915 148.341 68.3921C147.964 67.6927 147.776 66.8857 147.776 65.971C147.776 65.0457 147.964 64.2333 148.341 63.5339C148.717 62.8345 149.245 62.2964 149.923 61.9198C150.6 61.5432 151.381 61.3549 152.263 61.3549C153.113 61.3549 153.871 61.5379 154.539 61.9037C155.217 62.2695 155.738 62.7914 156.104 63.4693C156.481 64.1364 156.669 64.9058 156.669 65.7774ZM154.329 65.1318C154.318 64.5507 154.108 64.088 153.699 63.7437C153.29 63.3886 152.79 63.2111 152.198 63.2111C151.639 63.2111 151.165 63.3832 150.778 63.7276C150.401 64.0611 150.17 64.5292 150.084 65.1318H154.329ZM160.578 58.4981V70.4419H158.318V58.4981H160.578ZM162.23 65.9388C162.23 65.0349 162.407 64.2333 162.762 63.5339C163.128 62.8345 163.618 62.2964 164.231 61.9198C164.855 61.5432 165.549 61.3549 166.313 61.3549C166.98 61.3549 167.561 61.4894 168.056 61.7584C168.562 62.0274 168.965 62.3664 169.267 62.7753V61.5002H171.542V70.4419H169.267V69.1345C168.976 69.5542 168.573 69.9039 168.056 70.1837C167.55 70.4527 166.964 70.5872 166.297 70.5872C165.544 70.5872 164.855 70.3935 164.231 70.0061C163.618 69.6187 163.128 69.0754 162.762 68.3759C162.407 67.6658 162.23 66.8534 162.23 65.9388ZM169.267 65.971C169.267 65.4223 169.159 64.9542 168.944 64.5668C168.729 64.1687 168.438 63.8674 168.072 63.663C167.706 63.4478 167.314 63.3402 166.894 63.3402C166.474 63.3402 166.087 63.4424 165.732 63.6468C165.377 63.8513 165.086 64.1526 164.86 64.5507C164.645 64.9381 164.538 65.4008 164.538 65.9388C164.538 66.4768 164.645 66.9502 164.86 67.3591C165.086 67.7572 165.377 68.0639 165.732 68.2791C166.098 68.4943 166.485 68.6019 166.894 68.6019C167.314 68.6019 167.706 68.4997 168.072 68.2952C168.438 68.08 168.729 67.7788 168.944 67.3914C169.159 66.9933 169.267 66.5198 169.267 65.971ZM178.785 61.3711C179.463 61.3711 180.066 61.5217 180.593 61.823C181.12 62.1135 181.529 62.5493 181.82 63.1304C182.121 63.7007 182.271 64.3893 182.271 65.1963V70.4419H180.012V65.503C180.012 64.7928 179.834 64.2494 179.479 63.8728C179.124 63.4854 178.64 63.2918 178.027 63.2918C177.402 63.2918 176.908 63.4854 176.542 63.8728C176.187 64.2494 176.009 64.7928 176.009 65.503V70.4419H173.749V58.4981H176.009V62.6139C176.3 62.2265 176.687 61.9252 177.171 61.71C177.655 61.4841 178.193 61.3711 178.785 61.3711ZM190.526 62.8076C190.816 62.3772 191.214 62.0274 191.72 61.7584C192.237 61.4894 192.823 61.3549 193.479 61.3549C194.243 61.3549 194.932 61.5432 195.545 61.9198C196.17 62.2964 196.659 62.8345 197.014 63.5339C197.38 64.2225 197.563 65.0242 197.563 65.9388C197.563 66.8534 197.38 67.6658 197.014 68.3759C196.659 69.0754 196.17 69.6187 195.545 70.0061C194.932 70.3935 194.243 70.5872 193.479 70.5872C192.812 70.5872 192.226 70.458 191.72 70.1998C191.225 69.9308 190.827 69.5865 190.526 69.1668V70.4419H188.266V58.4981H190.526V62.8076ZM195.255 65.9388C195.255 65.4008 195.142 64.9381 194.916 64.5507C194.701 64.1526 194.41 63.8513 194.044 63.6468C193.689 63.4424 193.302 63.3402 192.882 63.3402C192.473 63.3402 192.086 63.4478 191.72 63.663C191.365 63.8674 191.075 64.1687 190.849 64.5668C190.633 64.965 190.526 65.433 190.526 65.971C190.526 66.5091 190.633 66.9771 190.849 67.3752C191.075 67.7734 191.365 68.08 191.72 68.2952C192.086 68.4997 192.473 68.6019 192.882 68.6019C193.302 68.6019 193.689 68.4943 194.044 68.2791C194.41 68.0639 194.701 67.7572 194.916 67.3591C195.142 66.961 195.255 66.4875 195.255 65.9388ZM207.517 65.7774C207.517 66.1002 207.496 66.3907 207.453 66.6489H200.916C200.97 67.2945 201.196 67.8003 201.594 68.1661C201.992 68.532 202.481 68.7149 203.063 68.7149C203.902 68.7149 204.499 68.3544 204.854 67.6335H207.291C207.033 68.4943 206.538 69.2045 205.806 69.764C205.075 70.3128 204.176 70.5872 203.111 70.5872C202.25 70.5872 201.475 70.3989 200.787 70.0222C200.109 69.6349 199.576 69.0915 199.189 68.3921C198.812 67.6927 198.624 66.8857 198.624 65.971C198.624 65.0457 198.812 64.2333 199.189 63.5339C199.565 62.8345 200.093 62.2964 200.771 61.9198C201.448 61.5432 202.229 61.3549 203.111 61.3549C203.961 61.3549 204.72 61.5379 205.387 61.9037C206.065 62.2695 206.586 62.7914 206.952 63.4693C207.329 64.1364 207.517 64.9058 207.517 65.7774ZM205.177 65.1318C205.166 64.5507 204.956 64.088 204.547 63.7437C204.139 63.3886 203.638 63.2111 203.046 63.2111C202.487 63.2111 202.013 63.3832 201.626 63.7276C201.249 64.0611 201.018 64.5292 200.932 65.1318H205.177ZM211.426 62.8883C211.717 62.4148 212.093 62.0436 212.556 61.7746C213.029 61.5056 213.567 61.3711 214.17 61.3711V63.7437H213.573C212.863 63.7437 212.325 63.9105 211.959 64.244C211.604 64.5776 211.426 65.1587 211.426 65.9872V70.4419H209.167V61.5002H211.426V62.8883ZM215.111 65.9388C215.111 65.0349 215.288 64.2333 215.644 63.5339C216.009 62.8345 216.504 62.2964 217.128 61.9198C217.753 61.5432 218.447 61.3549 219.211 61.3549C219.792 61.3549 220.346 61.4841 220.873 61.7423C221.4 61.9898 221.82 62.3233 222.132 62.743V58.4981H224.424V70.4419H222.132V69.1184C221.852 69.5596 221.459 69.9146 220.954 70.1837C220.448 70.4527 219.862 70.5872 219.194 70.5872C218.441 70.5872 217.753 70.3935 217.128 70.0061C216.504 69.6187 216.009 69.0754 215.644 68.3759C215.288 67.6658 215.111 66.8534 215.111 65.9388ZM222.148 65.971C222.148 65.4223 222.04 64.9542 221.825 64.5668C221.61 64.1687 221.32 63.8674 220.954 63.663C220.588 63.4478 220.195 63.3402 219.775 63.3402C219.356 63.3402 218.968 63.4424 218.613 63.6468C218.258 63.8513 217.968 64.1526 217.742 64.5507C217.527 64.9381 217.419 65.4008 217.419 65.9388C217.419 66.4768 217.527 66.9502 217.742 67.3591C217.968 67.7572 218.258 68.0639 218.613 68.2791C218.979 68.4943 219.367 68.6019 219.775 68.6019C220.195 68.6019 220.588 68.4997 220.954 68.2952C221.32 68.08 221.61 67.7788 221.825 67.3914C222.04 66.9933 222.148 66.5198 222.148 65.971ZM227.777 60.4349C227.379 60.4349 227.045 60.3112 226.776 60.0637C226.518 59.8055 226.389 59.488 226.389 59.1114C226.389 58.7348 226.518 58.4228 226.776 58.1753C227.045 57.9171 227.379 57.7879 227.777 57.7879C228.175 57.7879 228.503 57.9171 228.761 58.1753C229.03 58.4228 229.165 58.7348 229.165 59.1114C229.165 59.488 229.03 59.8055 228.761 60.0637C228.503 60.3112 228.175 60.4349 227.777 60.4349ZM228.89 61.5002V70.4419H226.631V61.5002H228.89ZM233.383 62.8883C233.673 62.4148 234.05 62.0436 234.512 61.7746C234.986 61.5056 235.524 61.3711 236.126 61.3711V63.7437H235.529C234.819 63.7437 234.281 63.9105 233.915 64.244C233.56 64.5776 233.383 65.1587 233.383 65.9872V70.4419H231.123V61.5002H233.383V62.8883ZM238.794 60.4349C238.396 60.4349 238.063 60.3112 237.794 60.0637C237.535 59.8055 237.406 59.488 237.406 59.1114C237.406 58.7348 237.535 58.4228 237.794 58.1753C238.063 57.9171 238.396 57.7879 238.794 57.7879C239.192 57.7879 239.521 57.9171 239.779 58.1753C240.048 58.4228 240.182 58.7348 240.182 59.1114C240.182 59.488 240.048 59.8055 239.779 60.0637C239.521 60.3112 239.192 60.4349 238.794 60.4349ZM239.908 61.5002V70.4419H237.648V61.5002H239.908ZM249.408 70.5872C248.677 70.5872 248.02 70.458 247.439 70.1998C246.858 69.9308 246.395 69.5703 246.051 69.1184C245.717 68.6665 245.535 68.1661 245.502 67.6174H247.778C247.821 67.9617 247.988 68.2468 248.278 68.4728C248.58 68.6987 248.951 68.8117 249.392 68.8117C249.822 68.8117 250.156 68.7256 250.393 68.5535C250.64 68.3813 250.764 68.1607 250.764 67.8917C250.764 67.6012 250.613 67.386 250.312 67.2461C250.022 67.0955 249.553 66.9341 248.908 66.7619C248.241 66.6005 247.692 66.4337 247.262 66.2616C246.842 66.0894 246.476 65.8258 246.164 65.4707C245.863 65.1156 245.712 64.6368 245.712 64.0342C245.712 63.5392 245.852 63.0873 246.132 62.6784C246.422 62.2695 246.831 61.9467 247.358 61.71C247.896 61.4733 248.526 61.3549 249.247 61.3549C250.312 61.3549 251.162 61.6239 251.797 62.1619C252.432 62.6892 252.782 63.4047 252.846 64.3086H250.683C250.651 63.9535 250.5 63.6738 250.231 63.4693C249.973 63.2541 249.623 63.1465 249.182 63.1465C248.773 63.1465 248.456 63.2218 248.23 63.3725C248.015 63.5231 247.907 63.7329 247.907 64.0019C247.907 64.3032 248.058 64.5346 248.359 64.696C248.66 64.8466 249.128 65.0026 249.763 65.164C250.409 65.3254 250.942 65.4922 251.361 65.6644C251.781 65.8365 252.141 66.1055 252.443 66.4714C252.755 66.8265 252.916 67.2999 252.927 67.8917C252.927 68.4082 252.782 68.8709 252.491 69.2798C252.211 69.6887 251.802 70.0115 251.264 70.2482C250.737 70.4742 250.118 70.5872 249.408 70.5872ZM263.094 65.7774C263.094 66.1002 263.072 66.3907 263.029 66.6489H256.493C256.546 67.2945 256.772 67.8003 257.17 68.1661C257.569 68.532 258.058 68.7149 258.639 68.7149C259.478 68.7149 260.076 68.3544 260.431 67.6335H262.868C262.61 68.4943 262.115 69.2045 261.383 69.764C260.651 70.3128 259.753 70.5872 258.688 70.5872C257.827 70.5872 257.052 70.3989 256.363 70.0222C255.686 69.6349 255.153 69.0915 254.766 68.3921C254.389 67.6927 254.201 66.8857 254.201 65.971C254.201 65.0457 254.389 64.2333 254.766 63.5339C255.142 62.8345 255.669 62.2964 256.347 61.9198C257.025 61.5432 257.805 61.3549 258.688 61.3549C259.538 61.3549 260.296 61.5379 260.963 61.9037C261.641 62.2695 262.163 62.7914 262.529 63.4693C262.906 64.1364 263.094 64.9058 263.094 65.7774ZM260.754 65.1318C260.743 64.5507 260.533 64.088 260.124 63.7437C259.715 63.3886 259.215 63.2111 258.623 63.2111C258.064 63.2111 257.59 63.3832 257.203 63.7276C256.826 64.0611 256.595 64.5292 256.509 65.1318H260.754ZM265.889 60.4349C265.48 60.4349 265.141 60.3112 264.872 60.0637C264.614 59.8055 264.485 59.488 264.485 59.1114C264.485 58.7348 264.614 58.4228 264.872 58.1753C265.141 57.9171 265.48 57.7879 265.889 57.7879C266.287 57.7879 266.615 57.9171 266.874 58.1753C267.132 58.4228 267.261 58.7348 267.261 59.1114C267.261 59.488 267.132 59.8055 266.874 60.0637C266.615 60.3112 266.287 60.4349 265.889 60.4349ZM267.003 71.9107C267.003 72.9006 266.755 73.6108 266.26 74.0412C265.776 74.4823 265.077 74.7029 264.162 74.7029H263.161V72.7822H263.807C264.151 72.7822 264.394 72.7123 264.533 72.5724C264.673 72.4433 264.743 72.2281 264.743 71.9268V61.5002H267.003V71.9107ZM268.654 65.9388C268.654 65.0349 268.832 64.2333 269.187 63.5339C269.553 62.8345 270.042 62.2964 270.656 61.9198C271.28 61.5432 271.974 61.3549 272.738 61.3549C273.405 61.3549 273.986 61.4894 274.481 61.7584C274.987 62.0274 275.39 62.3664 275.691 62.7753V61.5002H277.967V70.4419H275.691V69.1345C275.401 69.5542 274.997 69.9039 274.481 70.1837C273.975 70.4527 273.389 70.5872 272.722 70.5872C271.968 70.5872 271.28 70.3935 270.656 70.0061C270.042 69.6187 269.553 69.0754 269.187 68.3759C268.832 67.6658 268.654 66.8534 268.654 65.9388ZM275.691 65.971C275.691 65.4223 275.584 64.9542 275.369 64.5668C275.153 64.1687 274.863 63.8674 274.497 63.663C274.131 63.4478 273.739 63.3402 273.319 63.3402C272.899 63.3402 272.512 63.4424 272.157 63.6468C271.802 63.8513 271.511 64.1526 271.285 64.5507C271.07 64.9381 270.962 65.4008 270.962 65.9388C270.962 66.4768 271.07 66.9502 271.285 67.3591C271.511 67.7572 271.802 68.0639 272.157 68.2791C272.523 68.4943 272.91 68.6019 273.319 68.6019C273.739 68.6019 274.131 68.4997 274.497 68.2952C274.863 68.08 275.153 67.7788 275.369 67.3914C275.584 66.9933 275.691 66.5198 275.691 65.971ZM285.468 70.4419L282.434 66.6328V70.4419H280.174V58.4981H282.434V65.2932L285.436 61.5002H288.373L284.435 65.9872L288.406 70.4419H285.468ZM146.708 83.176V84.9998H143.706V94.4419H141.446V84.9998H138.444V83.176H146.708ZM147.776 89.9388C147.776 89.0349 147.953 88.2333 148.308 87.5339C148.674 86.8345 149.164 86.2964 149.777 85.9198C150.401 85.5432 151.095 85.3549 151.859 85.3549C152.526 85.3549 153.108 85.4894 153.602 85.7584C154.108 86.0274 154.512 86.3664 154.813 86.7753V85.5002H157.089V94.4419H154.813V93.1345C154.522 93.5542 154.119 93.9039 153.602 94.1837C153.097 94.4527 152.51 94.5872 151.843 94.5872C151.09 94.5872 150.401 94.3935 149.777 94.0061C149.164 93.6187 148.674 93.0754 148.308 92.3759C147.953 91.6658 147.776 90.8534 147.776 89.9388ZM154.813 89.971C154.813 89.4223 154.705 88.9542 154.49 88.5668C154.275 88.1687 153.984 87.8674 153.619 87.663C153.253 87.4478 152.86 87.3402 152.44 87.3402C152.021 87.3402 151.633 87.4424 151.278 87.6468C150.923 87.8513 150.633 88.1526 150.407 88.5507C150.192 88.9381 150.084 89.4008 150.084 89.9388C150.084 90.4768 150.192 90.9502 150.407 91.3591C150.633 91.7572 150.923 92.0639 151.278 92.2791C151.644 92.4943 152.032 92.6019 152.44 92.6019C152.86 92.6019 153.253 92.4997 153.619 92.2952C153.984 92.08 154.275 91.7788 154.49 91.3914C154.705 90.9933 154.813 90.5198 154.813 89.971ZM164.331 85.3711C165.009 85.3711 165.612 85.5217 166.139 85.823C166.666 86.1135 167.075 86.5493 167.366 87.1304C167.667 87.7007 167.818 88.3893 167.818 89.1963V94.4419H165.558V89.503C165.558 88.7928 165.381 88.2494 165.025 87.8728C164.67 87.4854 164.186 87.2918 163.573 87.2918C162.949 87.2918 162.454 87.4854 162.088 87.8728C161.733 88.2494 161.555 88.7928 161.555 89.503V94.4419H159.296V82.4981H161.555V86.6139C161.846 86.2265 162.233 85.9252 162.717 85.71C163.202 85.4841 163.74 85.3711 164.331 85.3711ZM178.408 85.5002V94.4419H176.132V93.3121C175.842 93.6994 175.46 94.0061 174.986 94.2321C174.523 94.4473 174.018 94.5549 173.469 94.5549C172.77 94.5549 172.151 94.4096 171.613 94.1191C171.075 93.8178 170.65 93.382 170.338 92.8117C170.036 92.2307 169.886 91.542 169.886 90.7458V85.5002H172.145V90.423C172.145 91.1331 172.323 91.6819 172.678 92.0693C173.033 92.4459 173.517 92.6342 174.131 92.6342C174.755 92.6342 175.244 92.4459 175.599 92.0693C175.955 91.6819 176.132 91.1331 176.132 90.423V85.5002H178.408ZM185.592 85.3711C186.658 85.3711 187.519 85.71 188.175 86.3879C188.831 87.055 189.159 87.9912 189.159 89.1963V94.4419H186.9V89.503C186.9 88.7928 186.722 88.2494 186.367 87.8728C186.012 87.4854 185.528 87.2918 184.915 87.2918C184.29 87.2918 183.796 87.4854 183.43 87.8728C183.075 88.2494 182.897 88.7928 182.897 89.503V94.4419H180.637V85.5002H182.897V86.6139C183.198 86.2265 183.58 85.9252 184.043 85.71C184.516 85.4841 185.033 85.3711 185.592 85.3711ZM195.606 91.8917C196.639 91.0309 197.462 90.3154 198.076 89.7451C198.689 89.164 199.2 88.5615 199.609 87.9374C200.018 87.3133 200.222 86.7 200.222 86.0974C200.222 85.5486 200.093 85.1182 199.835 84.8062C199.577 84.4941 199.178 84.3381 198.64 84.3381C198.102 84.3381 197.688 84.521 197.398 84.8869C197.107 85.242 196.956 85.7315 196.946 86.3556H194.751C194.794 85.0644 195.176 84.0852 195.897 83.4181C196.628 82.751 197.554 82.4174 198.673 82.4174C199.899 82.4174 200.841 82.7456 201.497 83.402C202.154 84.0476 202.482 84.903 202.482 85.9683C202.482 86.8076 202.256 87.6092 201.804 88.3732C201.352 89.1371 200.836 89.8043 200.254 90.3746C199.673 90.9341 198.915 91.612 197.979 92.4082H202.74V94.2805H194.767V92.6019L195.606 91.8917ZM204.164 88.4054C204.164 86.5439 204.498 85.0859 205.165 84.0314C205.843 82.9769 206.962 82.4497 208.522 82.4497C210.082 82.4497 211.196 82.9769 211.863 84.0314C212.541 85.0859 212.88 86.5439 212.88 88.4054C212.88 90.2777 212.541 91.7465 211.863 92.8117C211.196 93.877 210.082 94.4096 208.522 94.4096C206.962 94.4096 205.843 93.877 205.165 92.8117C204.498 91.7465 204.164 90.2777 204.164 88.4054ZM210.652 88.4054C210.652 87.6092 210.599 86.9421 210.491 86.4041C210.394 85.8553 210.19 85.4087 209.878 85.0644C209.576 84.7201 209.124 84.5479 208.522 84.5479C207.919 84.5479 207.462 84.7201 207.15 85.0644C206.849 85.4087 206.644 85.8553 206.537 86.4041C206.44 86.9421 206.391 87.6092 206.391 88.4054C206.391 89.2232 206.44 89.9119 206.537 90.4714C206.633 91.0202 206.838 91.4667 207.15 91.811C207.462 92.1446 207.919 92.3114 208.522 92.3114C209.124 92.3114 209.582 92.1446 209.894 91.811C210.206 91.4667 210.41 91.0202 210.507 90.4714C210.604 89.9119 210.652 89.2232 210.652 88.4054ZM214.324 84.7577V82.6757H218.214V94.4419H215.89V84.7577H214.324ZM223.061 91.1331C223.147 91.6066 223.341 91.9724 223.642 92.2307C223.954 92.4782 224.368 92.6019 224.885 92.6019C225.552 92.6019 226.036 92.3275 226.337 91.7788C226.639 91.2192 226.789 90.2831 226.789 88.9704C226.542 89.3147 226.192 89.5837 225.74 89.7774C225.299 89.971 224.82 90.0679 224.304 90.0679C223.615 90.0679 222.991 89.928 222.431 89.6482C221.883 89.3577 221.447 88.9327 221.124 88.3732C220.801 87.8029 220.64 87.1142 220.64 86.3072C220.64 85.1128 220.995 84.1659 221.705 83.4665C222.415 82.7564 223.384 82.4013 224.61 82.4013C226.138 82.4013 227.214 82.8909 227.838 83.87C228.473 84.8492 228.791 86.3233 228.791 88.2925C228.791 89.6913 228.667 90.8372 228.419 91.7303C228.183 92.6234 227.768 93.3013 227.177 93.764C226.595 94.2267 225.799 94.458 224.788 94.458C223.992 94.458 223.314 94.3074 222.754 94.0061C222.195 93.6941 221.764 93.2906 221.463 92.7956C221.172 92.2899 221.006 91.7357 220.963 91.1331H223.061ZM224.772 88.2279C225.331 88.2279 225.772 88.0557 226.095 87.7114C226.418 87.3671 226.579 86.9044 226.579 86.3233C226.579 85.6885 226.407 85.1989 226.063 84.8546C225.729 84.4995 225.272 84.322 224.691 84.322C224.11 84.322 223.647 84.5049 223.303 84.8707C222.969 85.2258 222.803 85.6993 222.803 86.2911C222.803 86.8614 222.964 87.3294 223.287 87.6953C223.62 88.0504 224.115 88.2279 224.772 88.2279Z" fill="black"/>
<rect x="47.3537" y="42.9906" width="64.5833" height="66.9307" rx="32.2917" fill="#EAEAEA"/>
<path d="M97.0331 66.2328C97.0331 83.3362 94.5641 91.6742 79.9276 95.8534C79.8355 95.88 79.7414 95.8943 79.6473 95.8943C79.5532 95.8943 79.4592 95.88 79.3671 95.8534C64.7286 91.6701 62.2575 83.4179 62.2575 66.4965C62.2575 66.0382 62.5623 65.6374 63.0021 65.5126C70.8635 63.2931 76.851 59.3985 78.958 57.3201C79.1523 57.1299 79.4264 56.9825 79.6841 57.0254C79.9542 57.0275 80.2139 57.1378 80.4042 57.3301C82.3086 59.2612 90.3481 63.2624 96.3336 65.2589C96.7509 65.4021 97.0331 65.7929 97.0331 66.2328Z" fill="#1E1E1E"/>
<defs>
<filter id="filter0_ddddd_7_518" x="0.88516" y="0.460363" width="571.799" height="356.784" filterUnits="userSpaceOnUse" color-interpolation-filters="sRGB">
<feFlood flood-opacity="0" result="BackgroundImageFix"/>
<feColorMatrix in="SourceAlpha" type="matrix" values="0 0 0 0 0 0 0 0 0 0 0 0 0 0 0 0 0 0 127 0" result="hardAlpha"/>
<feOffset/>
<feColorMatrix type="matrix" values="0 0 0 0 0.105882 0 0 0 0 0.113725 0 0 0 0 0.141176 0 0 0 0.1 0"/>
<feBlend mode="normal" in2="BackgroundImageFix" result="effect1_dropShadow_7_518"/>
<feColorMatrix in="SourceAlpha" type="matrix" values="0 0 0 0 0 0 0 0 0 0 0 0 0 0 0 0 0 0 127 0" result="hardAlpha"/>
<feOffset dx="7.87602" dy="9.45122"/>
<feGaussianBlur stdDeviation="12.9954"/>
<feColorMatrix type="matrix" values="0 0 0 0 0.105882 0 0 0 0 0.113725 0 0 0 0 0.141176 0 0 0 0.1 0"/>
<feBlend mode="normal" in2="effect1_dropShadow_7_518" result="effect2_dropShadow_7_518"/>
<feColorMatrix in="SourceAlpha" type="matrix" values="0 0 0 0 0 0 0 0 0 0 0 0 0 0 0 0 0 0 127 0" result="hardAlpha"/>
<feOffset dx="30.7165" dy="37.0173"/>
<feGaussianBlur stdDeviation="24.0219"/>
<feColorMatrix type="matrix" values="0 0 0 0 0.105882 0 0 0 0 0.113725 0 0 0 0 0.141176 0 0 0 0.09 0"/>
<feBlend mode="normal" in2="effect2_dropShadow_7_518" result="effect3_dropShadow_7_518"/>
<feColorMatrix in="SourceAlpha" type="matrix" values="0 0 0 0 0 0 0 0 0 0 0 0 0 0 0 0 0 0 127 0" result="hardAlpha"/>
<feOffset dx="68.5213" dy="82.6982"/>
<feGaussianBlur stdDeviation="32.2917"/>
<feColorMatrix type="matrix" values="0 0 0 0 0.105882 0 0 0 0 0.113725 0 0 0 0 0.141176 0 0 0 0.05 0"/>
<feBlend mode="normal" in2="effect3_dropShadow_7_518" result="effect4_dropShadow_7_518"/>
<feColorMatrix in="SourceAlpha" type="matrix" values="0 0 0 0 0 0 0 0 0 0 0 0 0 0 0 0 0 0 127 0" result="hardAlpha"/>
<feOffset dx="122.078" dy="146.494"/>
<feGaussianBlur stdDeviation="38.1987"/>
<feColorMatrix type="matrix" values="0 0 0 0 0.105882 0 0 0 0 0.113725 0 0 0 0 0.141176 0 0 0 0.01 0"/>
<feBlend mode="normal" in2="effect4_dropShadow_7_518" result="effect5_dropShadow_7_518"/>
<feBlend mode="normal" in="SourceGraphic" in2="effect5_dropShadow_7_518" result="shape"/>
</filter>
</defs>
</svg>
