<svg width="24" height="24" viewBox="0 0 24 24" fill="none" xmlns="http://www.w3.org/2000/svg">
<g id="3 - Bold / eye">
<path id="eye-Bold" d="M21.4385 9.98755C20.0968 7.75155 17.0857 4.00049 11.9971 4.00049C6.90947 4.00049 3.8983 7.75155 2.55567 9.98755C1.81087 11.2285 1.81087 12.7715 2.55567 14.0125C3.8983 16.2485 6.90947 19.9995 11.9971 19.9995C17.0857 19.9995 20.0968 16.2485 21.4385 14.0125C22.1833 12.7715 22.1833 11.2295 21.4385 9.98755ZM19.7239 12.9835C18.5993 14.8575 16.1009 18.0005 11.9971 18.0005C7.8942 18.0005 5.39488 14.8565 4.27019 12.9835C3.90629 12.3775 3.90629 11.6235 4.27019 11.0165C5.39488 9.14348 7.8942 5.99951 11.9971 5.99951C16.1009 5.99951 18.5993 9.14248 19.7239 11.0165C20.0878 11.6235 20.0878 12.3775 19.7239 12.9835ZM11.9971 7.50049C9.51675 7.50049 7.49831 9.51949 7.49831 12.0005C7.49831 14.4815 9.51675 16.5005 11.9971 16.5005C14.4774 16.5005 16.4958 14.4815 16.4958 12.0005C16.4958 9.51949 14.4774 7.50049 11.9971 7.50049ZM11.9971 14.5005C10.6194 14.5005 9.49776 13.3795 9.49776 12.0005C9.49776 10.6215 10.6194 9.50049 11.9971 9.50049C13.3747 9.50049 14.4964 10.6215 14.4964 12.0005C14.4964 13.3795 13.3747 14.5005 11.9971 14.5005Z" fill="#41416E"/>
</g>
</svg>
