<svg width="47" height="46" viewBox="0 0 47 46" fill="none" xmlns="http://www.w3.org/2000/svg">
<g clip-path="url(#clip0_42_214)">
<circle cx="23.75" cy="23.0363" r="22.9167" fill="#2A2A2A"/>
<path d="M21.025 29.0839C20.9076 27.5575 20.9076 26.031 20.7902 24.3871C20.7902 23.5652 20.4379 22.9781 19.4985 22.9781C18.9114 22.9781 18.3243 23.0955 18.2069 22.2736C18.0895 21.2168 17.8547 20.0426 18.2069 18.9858C18.2069 18.8684 18.6766 18.6336 18.9114 18.6336C20.6727 18.9858 21.025 18.0465 21.025 16.6374C21.025 12.88 24.1953 10.8839 28.305 11.1187C29.4792 11.2361 29.4792 12.1755 29.4792 12.9974C29.3618 13.8194 29.8315 14.9936 28.305 14.9936C27.0134 14.8762 26.074 15.3458 26.074 16.8723C26.074 17.9291 26.1915 18.751 27.4831 18.8684C29.3618 18.9858 29.0095 20.2775 29.0095 21.5691C29.1269 22.9781 28.4224 23.4478 27.1308 23.4478C25.8392 23.4478 25.6044 24.1523 25.6044 25.3265C25.6044 27.9097 25.6044 30.3755 25.4869 32.9588C25.3695 34.6026 25.0173 34.72 22.7863 34.6026C21.2598 34.6026 21.025 33.8981 21.1424 32.6065C20.9076 31.5497 20.9076 30.3755 21.025 29.0839Z" fill="white"/>
</g>
<defs>
<clipPath id="clip0_42_214">
<rect width="45.8333" height="45.8333" fill="white" transform="translate(0.833313 0.119629)"/>
</clipPath>
</defs>
</svg>
