<svg width="47" height="46" viewBox="0 0 47 46" fill="none" xmlns="http://www.w3.org/2000/svg">
<g clip-path="url(#clip0_42_219)">
<circle cx="23.25" cy="23.0363" r="22.9167" fill="#2A2A2A"/>
<path d="M30.7667 15.6427C30.1469 16.3823 29.5272 16.826 29.0624 17.4177C28.2878 18.4531 27.6681 18.6011 26.4286 17.8615C23.4849 16.2344 21.006 16.974 18.5271 19.6365C16.6679 21.5594 16.513 24.5179 17.9074 26.8846C19.9215 30.1388 26.7385 30.2867 28.9075 27.1804C29.5272 26.2929 29.2174 25.5533 27.9779 25.4054C27.2033 25.2575 26.2737 25.5533 25.3441 25.4054C23.7948 25.2575 23.1751 24.5178 23.33 23.0387C23.33 21.5595 24.4145 21.4115 25.654 21.4115C27.823 21.4115 29.8371 21.4116 32.0061 21.5595C34.3301 21.7074 34.485 22.0032 34.0202 24.222C34.0202 24.5178 33.7104 24.9616 33.7104 25.2574C32.9357 29.1033 31.5413 32.3576 27.2033 33.5409C22.5553 34.7243 18.3722 33.6888 14.9637 30.5825C11.2454 27.1804 11.4003 19.6365 15.2736 16.0865C19.9215 11.501 26.2737 11.3531 30.7667 15.6427Z" fill="white"/>
</g>
<defs>
<clipPath id="clip0_42_219">
<rect width="45.8333" height="45.8333" fill="white" transform="translate(0.333313 0.119629)"/>
</clipPath>
</defs>
</svg>
