<svg width="47" height="46" viewBox="0 0 47 46" fill="none" xmlns="http://www.w3.org/2000/svg">
<g clip-path="url(#clip0_42_224)">
<circle cx="23.25" cy="23.0363" r="22.9167" fill="#2A2A2A"/>
<path d="M23.0879 34.0339C21.0759 34.0339 19.0638 34.1544 17.1701 34.0339C14.448 33.793 13.3828 32.8293 12.9093 29.9382C12.3176 26.5651 12.0809 23.3126 12.4359 19.9396C12.5543 18.735 12.6726 17.4099 12.9093 16.2052C13.2644 13.6755 14.3296 12.5913 16.8151 11.9889C17.8803 11.748 18.8271 11.6275 19.8923 11.748C22.1411 11.8685 24.3898 11.8685 26.6386 11.6275C27.7038 11.5071 28.6506 11.6275 29.7158 11.748C31.7278 11.9889 33.1481 13.0731 33.3848 15.121C34.0949 20.1805 34.6867 25.24 33.7399 30.2995C33.2665 32.7088 32.2013 33.6726 29.8341 34.1544C27.7038 34.2749 25.455 34.1544 23.0879 34.0339ZM23.5613 17.8917C20.8391 17.7712 18.472 19.8192 18.2353 22.3489C17.9986 25.481 19.8923 27.5289 23.0879 27.7698C25.5734 27.8903 27.9405 25.7219 28.1772 22.9512C28.4139 20.4215 26.2835 18.0122 23.5613 17.8917ZM30.8993 15.9643C30.781 15.2415 30.4259 14.7596 29.5974 14.7596C28.6506 14.7596 28.1772 15.362 28.1772 16.2052C28.1772 17.0485 28.6506 17.6508 29.5974 17.6508C30.5443 17.5303 30.8993 16.928 30.8993 15.9643Z" fill="white"/>
</g>
<defs>
<clipPath id="clip0_42_224">
<rect width="45.8333" height="45.8333" fill="white" transform="translate(0.333313 0.119629)"/>
</clipPath>
</defs>
</svg>
