<svg width="42" height="42" viewBox="0 0 42 42" fill="none" xmlns="http://www.w3.org/2000/svg">
<rect width="42" height="42" rx="21" fill="#F6F9FF"/>
<path d="M29.75 21C29.75 21.9677 28.966 22.75 28 22.75H22.75V28C22.75 28.9677 21.966 29.75 21 29.75C20.034 29.75 19.25 28.9677 19.25 28V22.75H14C13.034 22.75 12.25 21.9677 12.25 21C12.25 20.0323 13.034 19.25 14 19.25H19.25V14C19.25 13.0323 20.034 12.25 21 12.25C21.966 12.25 22.75 13.0323 22.75 14V19.25H28C28.966 19.25 29.75 20.0323 29.75 21Z" fill="#E4E5E8"/>
</svg>
