<svg width="14" height="14" viewBox="0 0 14 14" fill="none" xmlns="http://www.w3.org/2000/svg">
<path d="M13.4713 12.5286L10.4453 9.50258C11.2073 8.53725 11.6666 7.32198 11.6666 5.99998C11.6666 2.87531 9.12459 0.333313 5.99992 0.333313C2.87525 0.333313 0.333252 2.87531 0.333252 5.99998C0.333252 9.12465 2.87525 11.6666 5.99992 11.6666C7.32259 11.6666 8.53725 11.208 9.50258 10.4453L12.5286 13.4713C12.6586 13.6013 12.8293 13.6666 12.9999 13.6666C13.1706 13.6666 13.3413 13.6013 13.4713 13.4713C13.7319 13.2107 13.7319 12.7893 13.4713 12.5286ZM1.66659 5.99998C1.66659 3.61065 3.61058 1.66665 5.99992 1.66665C8.38925 1.66665 10.3333 3.61065 10.3333 5.99998C10.3333 8.38931 8.38925 10.3333 5.99992 10.3333C3.61058 10.3333 1.66659 8.38931 1.66659 5.99998Z" fill="white"/>
</svg>
