<svg width="12" height="12" viewBox="0 0 12 12" fill="none" xmlns="http://www.w3.org/2000/svg">
<path d="M11.2118 5.78434L9.39528 7.52979L9.82402 9.99201C9.89402 10.3939 9.73186 10.7947 9.40053 11.0373C9.06278 11.2841 8.62177 11.318 8.2496 11.1261L6.00027 9.9611L3.75095 11.1261C3.59111 11.2089 3.41787 11.2497 3.24578 11.2497C3.01828 11.2497 2.79252 11.1779 2.60002 11.0373C2.26927 10.7947 2.10653 10.3939 2.17653 9.99201L2.60527 7.52979L0.788779 5.78434C0.491279 5.49851 0.384517 5.07801 0.510517 4.68717C0.637683 4.29167 0.974848 4.00996 1.39018 3.95046L3.90378 3.59043L5.02727 1.34753C5.21161 0.978868 5.58494 0.750244 6.00027 0.750244C6.41561 0.750244 6.78894 0.979451 6.97327 1.34753L8.09677 3.59043L10.6104 3.95046C11.0251 4.00996 11.3623 4.29167 11.4894 4.68717C11.6154 5.07801 11.5093 5.49851 11.2118 5.78434Z" fill="#DFAB32"/>
</svg>
