<svg width="47" height="46" viewBox="0 0 47 46" fill="none" xmlns="http://www.w3.org/2000/svg">
<g clip-path="url(#clip0_42_229)">
<circle cx="23.75" cy="23.0363" r="22.9167" fill="#2A2A2A"/>
<path d="M24.5585 34.3013C23.4448 34.1899 22.2197 34.3013 21.106 33.8558C19.324 33.0762 17.5421 33.0762 15.7602 34.1899C15.3147 34.4127 14.7578 34.7468 14.3124 34.1899C13.9782 33.8558 14.201 33.299 14.3124 32.9648C15.3147 30.7374 14.7578 28.8441 13.8669 26.6167C12.0849 22.2733 12.3077 18.0412 15.7602 14.4773C19.2127 11.0248 23.5561 10.468 28.1223 11.6931C29.5702 12.1385 30.7952 13.0295 31.9089 14.1432C37.2547 19.8231 37.4775 29.401 29.236 33.4104C27.6769 34.19 26.1177 34.1899 24.5585 34.3013ZM15.7602 32.8535C18.099 31.0716 20.3264 32.2966 22.5538 32.6307C25.7835 33.0762 28.9019 32.9649 31.5748 30.5147C34.3591 27.8418 35.1387 23.2756 33.8023 19.6004C32.1317 15.0342 28.3451 12.584 24.113 12.584C19.2127 12.584 14.0896 16.5934 14.3124 21.3823C14.4237 23.2756 14.5351 25.1689 15.5374 26.8395C16.6511 28.6214 16.8739 30.4033 15.7602 32.8535Z" fill="white"/>
<path d="M25.2267 25.2803C25.3381 25.1689 25.5609 25.0575 25.6722 24.9462C26.1177 24.2779 26.3404 23.3869 27.4542 23.6097C28.4565 23.9438 29.3475 24.7234 29.6816 25.7257C30.0157 26.7281 29.3475 27.3963 28.6792 27.9531C27.2314 29.0669 25.7836 28.7327 24.4472 28.0645C21.4401 26.394 19.7696 23.6097 18.7672 20.3799C18.4331 19.1549 18.8786 18.1525 20.1037 17.4843C20.8833 17.0388 21.5515 17.0388 21.997 17.7071C22.6652 18.598 24.113 19.3776 22.888 20.8254C22.3311 21.4936 22.5538 22.1619 22.9993 22.7187C23.5562 23.7211 24.113 24.7234 25.2267 25.2803Z" fill="white"/>
</g>
<defs>
<clipPath id="clip0_42_229">
<rect width="45.8333" height="45.8333" fill="white" transform="translate(0.833313 0.119629)"/>
</clipPath>
</defs>
</svg>
