<svg width="47" height="46" viewBox="0 0 47 46" fill="none" xmlns="http://www.w3.org/2000/svg">
<g clip-path="url(#clip0_42_235)">
<circle cx="23.2499" cy="23.0363" r="22.9167" fill="#2A2A2A"/>
<path d="M24.1508 30.9798C20.9824 31.3879 18.474 30.9798 15.9657 30.7078C13.4573 30.4357 12.6652 29.6195 12.5332 26.8988C12.4012 24.4502 12.2692 21.8656 12.2692 19.417C12.2692 16.2883 13.3253 15.2 16.3617 14.7919C21.3784 14.1118 26.3951 14.5199 31.4118 15.2C32.864 15.336 33.7882 16.0162 34.0522 17.5126C34.8443 20.7774 34.8443 24.1782 34.4483 27.579C34.1842 29.4834 32.732 30.4357 30.8838 30.7078C28.6394 31.1159 26.1311 31.1158 24.1508 30.9798ZM20.9824 27.1709C23.4907 26.4907 25.603 25.1304 27.5833 23.226C25.471 21.5936 23.3587 20.5053 20.7183 19.281C20.7183 22.1377 20.4543 24.5863 20.9824 27.1709Z" fill="white"/>
</g>
<defs>
<clipPath id="clip0_42_235">
<rect width="45.8333" height="45.8333" fill="white" transform="translate(0.333252 0.119629)"/>
</clipPath>
</defs>
</svg>
